<?xml version="1.0" encoding="UTF-8" standalone="no"?>
<!DOCTYPE svg PUBLIC "-//W3C//DTD SVG 1.1//EN" "http://www.w3.org/Graphics/SVG/1.1/DTD/svg11.dtd">
<svg width="100%" height="100%" viewBox="0 0 512 512" version="1.1" xmlns="http://www.w3.org/2000/svg" xmlns:xlink="http://www.w3.org/1999/xlink" xml:space="preserve" xmlns:serif="http://www.serif.com/" style="fill-rule:evenodd;clip-rule:evenodd;stroke-linejoin:round;stroke-miterlimit:2;">
    <g transform="matrix(1,0,0,1,-1084,-1626)">
        <g id="Account-01" serif:id="Account 01" transform="matrix(1,0,0,1,1084,1626)">
            <rect x="0" y="0" width="512" height="512" style="fill:none;"/>
            <g id="User" transform="matrix(9.97734,0,0,9.97734,2.63044,840.551)">
                <path d="M25.395,-71.092C26.755,-71.092 27.991,-70.73 29.101,-70.007C30.211,-69.284 31.091,-68.32 31.743,-67.117C32.395,-65.914 32.721,-64.596 32.721,-63.164C32.721,-61.632 32.398,-60.253 31.754,-59.028C31.109,-57.804 30.232,-56.837 29.122,-56.128C28.012,-55.419 26.769,-55.064 25.394,-55.064C24.019,-55.079 22.777,-55.44 21.667,-56.149C20.557,-56.858 19.68,-57.822 19.035,-59.039C18.391,-60.257 18.068,-61.632 18.068,-63.164C18.054,-64.596 18.376,-65.914 19.035,-67.117C19.694,-68.32 20.578,-69.284 21.688,-70.007C22.798,-70.73 24.034,-71.092 25.394,-71.092L25.395,-71.092ZM38.779,-45.912L38.822,-45.611C37.748,-44.437 36.506,-43.416 35.095,-42.55C33.684,-41.683 32.159,-41.014 30.519,-40.541C28.879,-40.068 27.171,-39.832 25.395,-39.832C23.618,-39.832 21.91,-40.068 20.271,-40.541C18.631,-41.014 17.109,-41.683 15.705,-42.55C14.301,-43.416 13.055,-44.437 11.967,-45.611L12.01,-45.912C12.726,-46.857 13.736,-47.745 15.039,-48.576C16.342,-49.407 17.875,-50.084 19.637,-50.606C21.398,-51.129 23.318,-51.391 25.395,-51.391C27.471,-51.391 29.391,-51.129 31.152,-50.606C32.914,-50.084 34.447,-49.407 35.75,-48.576C37.053,-47.745 38.063,-46.857 38.779,-45.912L38.779,-45.912ZM25.395,-37.039C28.345,-37.039 31.12,-37.601 33.72,-38.726C36.319,-39.85 38.611,-41.4 40.595,-43.377C42.578,-45.354 44.132,-47.645 45.257,-50.252C46.381,-52.859 46.943,-55.637 46.943,-58.588C46.943,-61.538 46.381,-64.313 45.257,-66.913C44.132,-69.513 42.578,-71.804 40.595,-73.788C38.611,-75.772 36.316,-77.326 33.709,-78.45C31.102,-79.575 28.324,-80.137 25.373,-80.137C22.423,-80.137 19.647,-79.575 17.048,-78.45C14.448,-77.326 12.16,-75.772 10.184,-73.788C8.207,-71.804 6.657,-69.513 5.532,-66.913C4.408,-64.313 3.846,-61.538 3.846,-58.588C3.846,-55.637 4.408,-52.859 5.532,-50.252C6.657,-47.645 8.211,-45.354 10.194,-43.377C12.178,-41.4 14.47,-39.85 17.069,-38.726C19.669,-37.601 22.444,-37.039 25.395,-37.039Z" style="fill:rgb(229,232,235);fill-rule:nonzero;"/>
            </g>
        </g>
    </g>
</svg>
