<?xml version="1.0" encoding="UTF-8" standalone="no"?>
<!DOCTYPE svg PUBLIC "-//W3C//DTD SVG 1.1//EN" "http://www.w3.org/Graphics/SVG/1.1/DTD/svg11.dtd">
<svg width="100%" height="100%" viewBox="0 0 512 512" version="1.1" xmlns="http://www.w3.org/2000/svg" xmlns:xlink="http://www.w3.org/1999/xlink" xml:space="preserve" xmlns:serif="http://www.serif.com/" style="fill-rule:evenodd;clip-rule:evenodd;stroke-linejoin:round;stroke-miterlimit:2;">
    <g transform="matrix(1,0,0,1,-542,-542)">
        <g id="Alcohol-01" serif:id="Alcohol 01" transform="matrix(1,0,0,1,542,542)">
            <rect x="0" y="0" width="512" height="512" style="fill:none;"/>
            <g id="Johnnie-Walker" serif:id="Johnnie Walker" transform="matrix(-1,0,0,1,445.984,-5.5)">
                <path d="M298,307.933L406.968,379.157L406.968,472.871C406.968,482.061 404.299,483.975 398.434,484.687C387.931,485.962 384.649,486 352.484,486C320.319,486 317.037,485.962 306.534,484.687C300.669,483.975 298,482.061 298,472.871L298,307.933ZM192.961,484.71L192.961,483.428C192.961,481.504 195.526,478.939 200.015,477.656C201.939,476.373 205.787,474.45 208.352,472.526C212.2,470.602 213.483,469.319 215.406,465.472C216.689,463.548 219.254,460.341 220.537,459.059C221.819,457.776 223.102,456.494 223.102,455.852C223.102,455.852 222.461,453.287 221.178,450.722C220.537,448.157 219.895,444.95 219.254,441.103L219.254,435.972L217.33,435.972C216.048,435.972 215.406,434.69 211.559,426.994C204.504,413.527 196.168,400.06 185.266,387.876C180.136,381.463 177.57,376.974 178.212,375.691C179.494,375.05 182.059,376.333 183.342,378.898C185.266,382.104 189.114,385.311 192.32,385.952C194.244,386.593 196.168,387.876 198.092,389.8C200.657,392.365 200.657,392.365 207.07,392.365C212.841,392.365 213.483,392.365 216.689,394.289C220.537,396.854 223.102,401.984 225.026,410.321C225.026,412.886 225.667,416.093 226.308,416.734L226.308,418.016L226.95,418.016C229.515,417.375 230.156,406.473 228.873,399.419C226.95,393.006 225.026,389.158 219.895,384.028C212.2,375.691 205.787,366.072 201.939,354.529C200.015,349.399 200.015,348.116 201.298,348.116C201.298,348.116 202.581,350.04 203.222,351.964C204.504,354.529 207.07,357.735 212.2,362.866C220.537,371.202 226.308,379.539 230.156,385.952C231.439,389.8 232.08,392.365 233.362,400.06C234.645,407.756 235.286,409.038 237.21,411.603C241.058,416.734 241.058,422.505 238.493,429.56C236.569,432.766 236.569,433.407 237.21,434.69C237.851,435.972 239.775,436.614 241.699,436.614L242.982,435.972C242.982,436.614 241.699,438.538 240.417,441.103C239.134,444.309 238.493,446.233 238.493,448.157L238.493,450.722L239.134,450.722C239.775,450.722 240.417,450.081 240.417,449.439L246.188,443.668L246.829,443.668C248.753,444.95 253.884,459.059 253.884,462.906C253.884,464.189 253.242,466.113 253.242,466.754C251.318,468.678 243.623,473.808 242.982,473.167C240.417,472.526 236.569,474.45 232.08,478.297C226.308,484.71 226.308,484.71 210.917,485.351L198.092,485.993C194.061,486.074 193.198,485.461 192.961,484.71ZM85.165,371.303L86.568,371.744C86.788,371.804 86.989,371.844 87.149,371.844L87.79,372.485L85.225,375.691C81.377,378.898 79.454,382.746 74.965,396.854C68.552,415.451 61.498,428.277 53.802,435.972C50.596,438.538 48.672,441.103 47.389,443.668C44.183,450.722 39.694,453.287 33.922,451.363L31.357,450.081L31.357,455.211C31.998,457.776 31.998,460.341 32.64,460.983L32.64,462.265L28.792,464.83C25.586,466.754 19.173,473.808 19.173,475.091C19.173,475.091 18.531,476.373 17.89,477.015C15.966,478.939 12.76,479.58 11.477,478.297C10.836,477.656 8.912,474.45 6.347,471.243C1.217,465.472 1.217,465.472 -3.914,464.83C-9.685,464.189 -12.892,462.265 -18.022,457.135C-23.794,452.005 -27,446.874 -27,443.668L-27,441.103L-21.87,441.103C-18.022,441.744 -16.098,442.385 -10.327,444.95C-3.914,447.516 -2.631,447.516 2.499,448.157C7.629,448.157 8.271,448.157 10.836,446.233C14.684,444.309 17.89,444.309 19.814,446.233C20.455,446.233 21.738,446.874 21.738,446.874L23.02,446.233L23.02,445.592C23.02,444.95 22.379,443.027 21.738,441.744C19.814,438.538 19.814,436.614 21.738,434.69C24.303,432.766 25.586,432.766 31.357,434.69C33.922,435.972 35.846,436.614 36.487,436.614L36.487,435.972L35.205,434.69C33.922,432.766 27.509,430.201 24.944,430.201L23.662,430.201L24.303,428.277C24.944,423.788 27.509,419.299 30.716,415.451C35.205,409.038 36.487,405.832 39.053,395.571C39.694,389.158 40.335,387.876 41.618,386.593C45.465,383.387 50.596,385.952 53.802,392.365C57.65,400.06 57.009,410.321 52.52,420.582C51.237,422.505 50.596,425.712 49.954,426.994L49.954,428.918L50.596,428.918C51.878,428.918 53.802,426.353 58.291,419.94C63.421,412.245 66.628,405.832 69.834,396.854C72.399,389.158 76.888,378.898 80.736,374.409C82.019,371.844 83.301,371.202 84.584,371.202L85.165,371.303ZM59.067,211.096C60.583,209.307 61.498,206.994 61.498,204.468C61.498,198.805 56.9,194.207 51.237,194.207C45.574,194.207 40.976,198.805 40.976,204.468C40.976,210.131 45.574,214.728 51.237,214.728C51.594,214.728 51.947,214.71 52.296,214.674C52.791,215.351 150.636,375.05 155.125,371.844C159.553,368.681 60.03,212.633 59.067,211.096ZM207.07,276.933C205.787,273.727 202.581,267.314 199.374,263.466C198.092,262.184 197.45,262.184 192.961,262.184C188.472,262.184 187.831,262.184 176.288,267.955C173.081,269.879 172.44,270.52 166.669,270.52C160.897,270.52 160.256,269.879 157.691,268.597C152.56,265.39 149.995,260.26 148.071,250.641C145.506,237.815 140.376,231.402 130.757,230.119C125.626,228.837 113.442,233.967 104.464,240.38L100.616,242.945L100.616,230.761L101.257,217.935L93.562,217.294L85.225,217.294L85.866,212.805L85.866,208.316L82.66,207.674C81.377,207.674 79.454,206.392 78.171,205.109C76.247,203.827 76.247,203.185 76.247,199.979C76.888,195.49 79.454,191.642 82.66,191.001L84.584,191.001L84.584,187.794L83.301,187.794C79.454,187.794 76.888,185.229 76.247,180.74L75.606,179.458L74.323,178.816C73.041,178.816 71.758,179.458 70.476,180.74C67.269,183.947 64.063,184.588 51.237,185.229L42.259,185.229L41.618,183.305C39.694,179.458 40.335,173.686 41.618,170.48C44.183,165.349 49.313,160.86 55.726,157.013C58.932,155.73 62.139,153.806 62.139,153.165L62.78,151.882L60.856,149.317C57.65,146.752 56.367,142.904 57.65,140.339C58.291,139.698 59.574,138.415 60.856,137.774C62.78,137.133 62.78,136.491 62.78,133.926C62.78,129.437 64.704,126.231 67.269,125.59C69.834,124.307 72.399,124.948 73.682,126.872C74.323,128.155 74.323,134.568 73.682,136.491L73.041,137.774L75.606,137.774C78.171,137.774 82.66,139.057 83.301,140.339C85.225,142.904 83.301,147.393 79.454,151.882C75.606,155.089 74.965,157.654 74.965,163.426L74.965,167.273L76.247,167.273C77.53,167.273 82.019,165.349 82.66,164.067C82.66,163.426 85.225,160.86 87.79,158.937C109.594,140.981 128.191,119.177 132.039,110.199C132.039,108.916 132.68,105.71 132.68,103.145L132.68,98.656L133.963,98.014C134.604,98.014 137.811,100.579 137.811,101.862C137.811,102.503 138.452,105.068 139.093,107.634C140.376,110.84 141.017,112.123 144.224,115.329C147.43,118.535 148.071,119.818 147.43,121.101C147.43,122.383 146.147,123.666 145.506,124.948C142.3,127.513 138.452,133.285 138.452,133.926L138.452,134.568L140.376,133.926C141.017,133.926 144.224,132.644 146.147,131.361C151.278,128.155 155.767,126.872 159.614,126.872C163.462,126.872 165.386,127.513 168.592,130.72C174.364,135.85 176.929,148.676 174.364,159.578C173.081,167.273 169.875,173.045 163.462,178.816C156.408,185.871 155.125,189.077 153.202,200.62C152.56,203.827 151.919,205.75 150.636,207.033C148.713,208.957 148.713,209.598 150.636,210.239C153.202,212.163 158.332,212.163 164.103,211.522C170.516,210.881 172.44,210.881 176.288,214.087C179.494,217.294 180.777,221.141 180.136,228.837C178.853,242.304 178.853,243.586 179.494,246.793C180.777,250.641 183.342,252.564 189.114,253.847C198.092,256.412 210.917,262.825 212.841,266.673C214.765,269.238 214.124,273.727 212.2,276.933C210.917,278.857 209.635,280.781 208.352,280.781L207.711,280.781L207.07,276.933ZM298,206.54L298,180.102C298,164.348 300.373,161.066 307.19,151.219C316.061,138.406 331.701,120.886 331.701,91.346C331.701,87.95 326.883,88.973 326.883,85.576C326.883,77.699 325.57,70.698 325.57,65.883C325.57,61.068 326.883,55.404 326.883,51.442C326.883,47.479 325.57,41.689 327.539,40.282C331.369,37.547 344.993,37 352.484,37C359.975,37 373.599,37.547 377.428,40.282C379.398,41.689 378.085,47.479 378.085,51.442C378.085,55.404 379.398,61.068 379.398,65.883C379.398,70.698 378.085,77.699 378.085,85.576C378.085,88.973 373.266,87.95 373.266,91.346C373.266,120.886 388.907,138.406 397.778,151.219C404.595,161.066 406.968,164.348 406.968,180.102L406.968,277.764L298,206.54ZM99.333,135.85L98.051,132.644L96.127,134.568L93.562,135.85L92.921,134.568C91.638,133.285 92.921,122.383 93.562,120.459C94.203,119.177 94.844,118.535 95.486,118.535L96.127,118.535L96.768,121.101C98.692,127.513 100.616,127.513 106.388,123.024C108.311,121.742 110.877,120.459 111.518,120.459L112.159,121.101L112.801,122.383C112.801,123.024 111.518,126.231 109.594,128.796C103.822,139.698 101.257,141.622 99.333,135.85ZM105.105,38.375C111.732,36.542 118.358,36.542 124.985,38.375C133.963,41.581 136.528,44.146 136.528,47.353C136.528,49.277 135.887,49.918 133.322,51.842C132.125,52.639 130.979,54.019 130.284,54.948C130.179,55.087 129.998,55.146 129.831,55.095C129.664,55.045 129.546,54.896 129.535,54.722C129.502,54.227 129.474,53.766 129.474,53.766C129.474,51.842 125.626,46.711 123.061,44.788C119.213,42.864 116.648,42.864 112.159,44.788L109.594,46.07L112.801,47.353C120.496,51.2 121.779,59.537 116.007,67.233L114.083,69.798L115.366,69.798C122.42,67.233 132.68,65.95 138.452,65.95C143.582,65.95 144.865,65.95 147.43,67.233C154.484,70.439 155.125,79.417 149.354,85.83C146.147,89.036 142.941,90.96 137.811,91.601C133.322,91.601 127.55,90.96 126.268,90.319L124.985,89.036L126.268,87.112C128.833,84.547 130.115,81.341 130.115,78.776C130.115,74.928 128.191,74.287 123.061,74.287C114.083,75.569 108.311,78.776 99.333,85.83C92.921,91.601 85.866,92.884 80.095,90.319C77.53,89.036 72.399,83.906 72.399,82.623L72.399,81.341L78.812,81.982C85.225,81.982 90.355,81.341 90.997,79.417C91.638,76.852 89.714,74.287 81.377,67.233C78.812,65.309 78.812,64.667 78.812,61.461C78.812,57.613 80.095,55.689 86.508,49.277C91.638,44.146 98.051,40.298 105.105,38.375Z" style="fill:rgb(229,232,235);"/>
            </g>
        </g>
    </g>
</svg>
