<svg width="22" height="22" viewBox="0 0 22 22" fill="none" xmlns="http://www.w3.org/2000/svg">
<path d="M15.4264 0.0902343C15.8174 0.266406 16.5737 0.945312 17.1194 1.61133C18.0389 2.73711 18.6491 4.01758 18.9069 5.3668C19.0573 6.15742 18.9799 6.5957 18.6491 6.81914L18.5073 6.91797H15.912C14.2147 6.91797 13.2866 6.90078 13.2307 6.875C13.0975 6.80195 13.0202 6.6 13.0202 6.3293C13.0202 6.13164 13.2006 5.47852 13.901 3.13672C14.6573 0.592968 14.7905 0.180469 14.8893 0.0988278C15.0268 -0.0214844 15.1729 -0.0257816 15.4264 0.0902343Z" fill="white"/>
<path d="M18.52 8.30126C18.6962 8.34852 18.8465 8.47743 18.9368 8.6579C19.0786 8.9243 18.9153 9.96415 18.5973 10.8278C17.7766 13.0751 15.8731 14.8841 13.5356 15.6317C11.4001 16.3149 8.94654 16.1044 7.04733 15.0688C5.48756 14.2181 4.31451 12.9934 3.59264 11.4724C3.21881 10.6774 2.89225 9.4829 2.96099 9.13055C3.04693 8.67079 3.35631 8.39579 3.88912 8.29696C4.22428 8.23251 18.3008 8.2368 18.52 8.30126Z" fill="white"/>
<path d="M17.1106 16.9553C17.7938 17.1186 18.4942 17.6858 18.7864 18.3045C18.9883 18.7256 19.0528 19.0135 19.0442 19.4862C19.0313 21.0846 17.5446 22.2663 15.9633 21.9354C15.0395 21.742 14.2789 21.0073 14.0254 20.0749C13.9223 19.6795 13.9395 19.078 14.0684 18.6698C14.3391 17.8147 15.1082 17.1143 15.9762 16.9338C16.2813 16.8694 16.8098 16.878 17.1106 16.9553Z" fill="white"/>
<path d="M6.03769 16.9381C6.39433 17.0069 6.91426 17.2776 7.20644 17.5483C7.76504 18.0639 8.04004 18.687 8.04004 19.4217C8.04004 20.1651 7.8166 20.7151 7.30527 21.2307C6.93144 21.6045 6.52324 21.8323 6.03769 21.9354C4.45644 22.2663 2.96972 21.0846 2.95683 19.4862C2.94824 18.7342 3.17168 18.1756 3.6916 17.6557C4.32754 17.0198 5.14824 16.7663 6.03769 16.9381Z" fill="white"/>
</svg>
