<svg width="22" height="22" viewBox="0 0 22 22" fill="none" xmlns="http://www.w3.org/2000/svg">
<g clip-path="url(#clip0_148_1025)">
<path fill-rule="evenodd" clip-rule="evenodd" d="M11.1285 18.4977C11.0533 18.5696 10.9312 18.5696 10.8561 18.4977L9.67484 17.3678C9.60008 17.2959 9.60008 17.1792 9.67484 17.1072L10.8561 15.9778C10.9312 15.9059 11.0533 15.9059 11.1285 15.9778L12.3097 17.1072C12.3849 17.1792 12.3849 17.2959 12.3097 17.3678L11.1285 18.4977ZM11.8847 14.0128C12.6075 12.7863 13.5326 12.929 14.6639 12.6454C15.4773 12.4419 15.8323 12.0893 16.6272 12.1781C17.3783 12.2615 18.3434 12.8303 18.3434 13.8677C18.3434 14.3625 18.0061 15.1443 16.9185 15.15C15.8314 15.1558 14.3254 13.8352 11.8847 14.0128ZM5.06602 15.15C3.97848 15.1443 3.6416 14.3625 3.6416 13.8677C3.6416 12.8303 4.60625 12.2615 5.35734 12.1781C6.15227 12.0893 6.50719 12.4419 7.32059 12.6454C8.45195 12.929 9.3775 12.7863 10.0998 14.0128C7.65918 13.8352 6.15355 15.1558 5.06602 15.15ZM10.9991 2.64807C11.724 4.29579 13.3255 5.46592 13.3255 7.66645C13.3255 9.86697 11.5234 11.0104 10.9991 12.5496C10.4754 11.0104 8.67324 9.86697 8.67324 7.66645C8.67324 5.46592 10.2747 4.29579 10.9991 2.64807ZM14.4087 7.59863C15.9272 7.09022 16.9185 8.21925 16.9185 9.20484C16.9185 11.0544 13.9124 11.7075 12.6865 11.8973C13.8196 10.7141 14.6829 8.7626 14.4087 7.59863ZM9.29801 11.8973C8.07254 11.7075 5.06602 11.0544 5.06602 9.20484C5.06602 8.21925 6.0573 7.09022 7.57582 7.59863C7.30168 8.7626 8.16535 10.7141 9.29801 11.8973Z" fill="#E5E8EB"/>
</g>
<defs>
<clipPath id="clip0_148_1025">
<rect width="22" height="21.0435" fill="white"/>
</clipPath>
</defs>
</svg>
