<?xml version="1.0" encoding="UTF-8" standalone="no"?>
<!DOCTYPE svg PUBLIC "-//W3C//DTD SVG 1.1//EN" "http://www.w3.org/Graphics/SVG/1.1/DTD/svg11.dtd">
<svg width="100%" height="100%" viewBox="0 0 512 512" version="1.1" xmlns="http://www.w3.org/2000/svg" xmlns:xlink="http://www.w3.org/1999/xlink" xml:space="preserve" xmlns:serif="http://www.serif.com/" style="fill-rule:evenodd;clip-rule:evenodd;stroke-linejoin:round;stroke-miterlimit:2;">
    <g transform="matrix(1,0,0,1,-542,-2168)">
        <g id="Car-02" serif:id="Car 02" transform="matrix(1,0,0,1,542,2168)">
            <rect x="0" y="0" width="512" height="512" style="fill:none;"/>
            <g id="Car" transform="matrix(2.23439,0,0,2.23439,-34.4731,-41.9894)">
                <path d="M224.737,189.914C222.799,191.734 219.552,192.903 214,192.903L195.957,192.903L195.957,203.28C195.957,206.315 198.422,208.78 201.457,208.78L219.237,208.78C222.272,208.78 224.737,206.315 224.737,203.28L224.737,189.914ZM36,190.526L36,203.28C36,206.315 38.464,208.78 41.5,208.78L59.28,208.78C62.315,208.78 64.78,206.315 64.78,203.28L64.78,192.903L46,192.903C41.099,192.903 37.994,191.992 36,190.526ZM31.004,136.433C33.328,140.751 37.316,145.654 43.982,148.078C51.989,150.99 70.605,155.49 80.143,157.726C81.116,157.958 82.132,157.577 82.712,156.763C83.292,155.948 83.32,154.863 82.782,154.02C77.694,146.041 68.01,130.857 64.392,125.204L64.135,124.85C67.568,126.399 70.408,128.805 73.428,130.649C75.958,132.194 78.611,133.336 81.757,133.421C86.929,133.542 96.564,133.853 105.879,133.987C118.211,134.163 129.969,134.112 130.001,134.112C130.022,134.112 138.9,134.172 149.321,134.038C159.971,133.902 172.223,133.539 178.3,133.406C182.192,133.299 185.321,131.562 188.413,129.495C190.763,127.923 193.094,126.175 195.79,124.953L195.608,125.204C191.99,130.857 182.306,146.041 177.218,154.02C176.68,154.863 176.708,155.948 177.288,156.763C177.868,157.577 178.884,157.958 179.857,157.726C189.395,155.49 208.011,150.99 216.018,148.078C222.684,145.654 226.672,140.751 228.996,136.433C228.995,147.671 228.929,166.711 228,176C227.343,182.567 228,190 214,190L46,190C32,190 32.657,182.567 32,176C31.071,166.711 31.005,147.671 31.004,136.433ZM158.22,172.211C158.22,170.439 156.782,169 155.009,169L104.991,169C103.218,169 101.78,170.439 101.78,172.211L101.78,179.789C101.78,181.561 103.218,183 104.991,183L155.009,183C156.782,183 158.22,181.561 158.22,179.789L158.22,172.211ZM67.898,167.72C70.657,167.72 72.898,169.961 72.898,172.72C72.898,175.48 70.657,177.72 67.898,177.72C65.138,177.72 62.898,175.48 62.898,172.72C62.898,169.961 65.138,167.72 67.898,167.72ZM52.78,162.72C56.919,162.72 60.28,166.081 60.28,170.22C60.28,174.36 56.919,177.72 52.78,177.72C48.64,177.72 45.28,174.36 45.28,170.22C45.28,166.081 48.64,162.72 52.78,162.72ZM192.102,167.72C189.343,167.72 187.102,169.961 187.102,172.72C187.102,175.48 189.343,177.72 192.102,177.72C194.862,177.72 197.102,175.48 197.102,172.72C197.102,169.961 194.862,167.72 192.102,167.72ZM207.22,162.72C203.081,162.72 199.72,166.081 199.72,170.22C199.72,174.36 203.081,177.72 207.22,177.72C211.36,177.72 214.72,174.36 214.72,170.22C214.72,166.081 211.36,162.72 207.22,162.72ZM178.22,143.273C178.579,142.695 178.597,141.967 178.266,141.372C177.935,140.777 177.308,140.408 176.627,140.408C161.342,140.408 98.658,140.408 83.373,140.408C82.692,140.408 82.065,140.777 81.734,141.372C81.403,141.967 81.421,142.695 81.78,143.273C84.515,147.675 89.669,155.971 91.911,159.581C92.597,160.684 93.767,161.396 95.062,161.498C118.483,163.316 141.774,163.298 164.938,161.498C166.233,161.396 167.403,160.684 168.088,159.581C170.331,155.971 175.485,147.675 178.22,143.273ZM100.806,157.599C100.806,157.599 105.705,157.864 116.8,158.043C120.975,158.11 125.487,158.174 130,158.171C134.513,158.168 139.025,158.093 143.2,158.025C154.295,157.844 159.194,157.599 159.194,157.599C159.614,157.599 159.955,157.258 159.955,156.838C159.955,156.418 159.614,156.077 159.194,156.077C159.194,156.077 154.295,155.832 143.2,155.651C139.025,155.583 134.513,155.508 130,155.505C125.487,155.502 120.975,155.566 116.8,155.634C105.705,155.812 100.806,156.077 100.806,156.077C100.386,156.077 100.045,156.418 100.045,156.838C100.045,157.258 100.386,157.599 100.806,157.599ZM97,152.233C97,152.233 105.705,152.498 116.8,152.677C120.975,152.744 125.487,152.809 130,152.806C134.513,152.803 139.025,152.728 143.2,152.659C154.295,152.479 163,152.233 163,152.233C163.42,152.233 163.761,151.892 163.761,151.472C163.761,151.053 163.42,150.712 163,150.712C163,150.712 154.295,150.466 143.2,150.285C139.025,150.217 134.513,150.142 130,150.139C125.487,150.136 120.975,150.201 116.8,150.268C105.705,150.446 97,150.712 97,150.712C96.58,150.712 96.239,151.053 96.239,151.472C96.239,151.892 96.58,152.233 97,152.233ZM59.603,133.322C60.525,137.422 63.022,139.277 67.111,140.245C68.965,140.683 70.272,142.419 70.561,143.791C71.098,146.34 69.757,148.769 66.982,149.56C65.697,149.926 63.345,149.53 62.098,147.874C59.332,144.199 56.801,144.108 50.574,144.006C46.441,143.938 43.018,141.183 41.967,137.369C40.673,132.673 43.43,127.607 48.126,126.313C52.822,125.019 58.265,127.367 59.603,133.322ZM200.397,133.322C199.475,137.422 196.978,139.277 192.889,140.245C191.035,140.683 189.728,142.419 189.439,143.791C188.902,146.34 190.243,148.769 193.018,149.56C194.303,149.926 196.655,149.53 197.902,147.874C200.668,144.199 203.199,144.108 209.426,144.006C213.559,143.938 216.982,141.183 218.033,137.369C219.327,132.673 216.57,127.607 211.874,126.313C207.178,125.019 201.735,127.367 200.397,133.322ZM93,146.867C93,146.867 102.761,147.133 115.2,147.311C119.881,147.378 124.94,147.443 130,147.44C135.06,147.437 140.119,147.362 144.8,147.294C157.239,147.113 167,146.867 167,146.867C167.42,146.867 167.761,146.527 167.761,146.107C167.761,145.687 167.42,145.346 167,145.346C167,145.346 157.239,145.101 144.8,144.92C140.119,144.852 135.06,144.776 130,144.773C124.94,144.77 119.881,144.835 115.2,144.902C102.761,145.081 93,145.346 93,145.346C92.58,145.346 92.239,145.687 92.239,146.107C92.239,146.527 92.58,146.867 93,146.867ZM33.704,124.65C34.989,121.378 31.772,121.352 33.223,117.021C30.623,120.159 29.211,122.868 29.202,128.349C29.198,130.424 29.514,131.531 31.384,133.592C31.577,133.832 31.903,133.92 32.191,133.808C32.478,133.696 32.66,133.41 32.639,133.103C32.447,130.973 32.211,128.453 33.704,124.65ZM226.296,124.65C225.011,121.378 228.228,121.352 226.777,117.021C229.377,120.159 230.789,122.868 230.798,128.349C230.802,130.424 230.486,131.531 228.616,133.592C228.423,133.832 228.097,133.92 227.809,133.808C227.522,133.696 227.34,133.41 227.361,133.103C227.553,130.973 227.789,128.453 226.296,124.65ZM35.076,114.823C35.901,113.717 36.77,112.901 37.579,112.091C41.838,107.832 44,106 47,103C47.615,102.385 48.157,101.79 48.635,101.212L46.46,100.487C45.493,100.164 44.481,100 43.462,100L38,100C34.137,100 31,96.863 31,93L31,92.94C31,89.11 34.11,86 37.94,86L45.5,86C47.432,86 49,87.568 49,89.5C49,89.5 49,92.682 49,94.593C49,95.37 49.63,96 50.407,96L51.883,96C52.479,94.693 52.887,93.554 53.415,92.585C57,86 64.032,73.968 74,64C81,57 111.226,58 130,58C148.774,58 179,57 186,64C195.968,73.968 203,86 206.585,92.585C207.113,93.554 207.521,94.693 208.117,96L209.595,96C210.372,96 211.002,95.37 211.002,94.593C211.002,92.682 211.002,89.5 211.002,89.5C211.002,87.568 212.571,86 214.502,86L222.063,86C225.893,86 229.002,89.11 229.002,92.94L229.002,93C229.002,96.863 225.866,100 222.002,100L216.541,100C215.522,100 214.51,100.164 213.543,100.487L211.365,101.212C211.843,101.79 212.385,102.385 213,103C216,106 218.162,107.832 222.421,112.091C223.23,112.901 224.099,113.717 224.924,114.823C222.281,118.764 219.327,119.417 213,121C207.809,122.299 202.599,122.754 199.593,122.914C198.889,122.942 198.21,123.119 197.6,123.43L197.141,123.547C193.609,124.577 190.649,126.578 187.681,128.333C184.762,130.059 181.849,131.552 178.3,131.454C172.223,131.321 159.971,130.957 149.321,130.82C138.888,130.686 130.001,130.746 130.001,130.746C130.001,130.746 130.001,130.746 130.001,130.746C130.001,130.746 118.228,130.695 105.879,130.872C96.564,131.006 86.929,131.318 81.757,131.439C78.211,131.536 75.302,130.033 72.385,128.3C69.417,126.537 66.455,124.53 62.921,123.497L62.097,123.287C61.567,123.065 60.996,122.937 60.407,122.914C57.401,122.754 52.191,122.299 47,121C40.673,119.417 37.719,118.764 35.076,114.823ZM83.128,124.937L93.62,100.07C93.678,99.952 93.629,99.809 93.512,99.751C93.394,99.693 93.251,99.742 93.193,99.86L79.915,123.358C79.479,124.244 79.845,125.318 80.732,125.754C81.618,126.19 82.692,125.824 83.128,124.937ZM180.103,123.358L166.825,99.86C166.767,99.742 166.624,99.693 166.506,99.751C166.389,99.809 166.34,99.952 166.398,100.07L176.89,124.937C177.326,125.824 178.4,126.19 179.286,125.754C180.173,125.318 180.539,124.244 180.103,123.358ZM57.485,94.986C57.38,95.205 57.394,95.463 57.523,95.669C57.653,95.875 57.879,96 58.122,96C70.916,96 189.084,96 201.878,96C202.122,96 202.348,95.875 202.477,95.669C202.606,95.463 202.621,95.205 202.515,94.986C197.833,85.388 190.937,76.286 183.34,67.629C181.865,65.954 179.76,64.967 177.529,64.905C168.44,64.649 143.7,64 130,64C116.3,64 91.56,64.649 82.471,64.902C80.239,64.964 78.133,65.951 76.658,67.627C69.063,76.286 62.167,85.388 57.485,94.986Z" style="fill:rgb(229,232,235);"/>
            </g>
        </g>
    </g>
</svg>
