<svg width="26" height="18" viewBox="0 0 26 18" fill="none" xmlns="http://www.w3.org/2000/svg">
<path d="M24.9167 17.6673H1.08333C0.433333 17.6673 0 17.234 0 16.584V1.41732C0 0.767318 0.433333 0.333984 1.08333 0.333984H24.9167C25.5667 0.333984 26 0.767318 26 1.41732V16.584C26 17.234 25.5667 17.6673 24.9167 17.6673ZM2.16667 15.5006H23.8333V2.50065H2.16667V15.5006Z" fill="#0082E6"/>
<path d="M24.9167 9.00065H1.08333C0.433333 9.00065 0 8.56732 0 7.91732C0 7.26732 0.433333 6.83398 1.08333 6.83398H24.9167C25.5667 6.83398 26 7.26732 26 7.91732C26 8.56732 25.5667 9.00065 24.9167 9.00065Z" fill="#0082E6"/>
</svg>
