<svg width="22" height="22" viewBox="0 0 22 22" fill="none" xmlns="http://www.w3.org/2000/svg">
<path d="M3.93436 2.14963C3.79871 2.20528 3.69436 2.32007 3.67001 2.44529C3.64567 2.57746 3.7361 2.78964 3.84393 2.85225C3.89262 2.88007 4.22654 2.90094 4.9222 2.91138L5.92742 2.92877L6.4596 4.894C6.75525 5.97574 7.43351 8.63663 7.96917 10.8071C8.50483 12.9775 8.96744 14.8384 8.99874 14.9393C9.037 15.0784 9.07526 15.1375 9.16222 15.1897C9.27005 15.2593 9.37092 15.2593 14.2509 15.2593H19.2284L19.3223 15.1862C19.3745 15.1445 19.4336 15.0715 19.451 15.0228C19.4684 14.9741 19.931 13.1271 20.4771 10.9149C21.1692 8.10445 21.4649 6.8627 21.4475 6.78618C21.4371 6.72705 21.3814 6.63314 21.3223 6.57749L21.2179 6.47661L14.4596 6.46618L7.70482 6.45922L7.15177 4.42095C6.80047 3.13051 6.57438 2.34789 6.52916 2.29224C6.39351 2.12181 6.31699 2.11137 5.12741 2.11485C4.48045 2.11485 3.98654 2.12876 3.93436 2.14963Z" fill="white"/>
<path d="M11.2213 16.3757C10.2613 16.4905 9.55172 17.4296 9.69781 18.3896C9.81607 19.1548 10.4491 19.7809 11.2109 19.8853C12.2578 20.0314 13.2213 19.1931 13.2213 18.1357C13.2213 17.0679 12.2891 16.2505 11.2213 16.3757Z" fill="white"/>
<path d="M16.8045 16.3728C15.8305 16.4945 15.114 17.4371 15.2705 18.3936C15.4271 19.3502 16.3418 20.0284 17.2775 19.8858C17.9766 19.7815 18.6062 19.1971 18.7523 18.5258C18.8149 18.251 18.7801 17.7606 18.6862 17.5136C18.3906 16.7449 17.6114 16.2719 16.8045 16.3728Z" fill="white"/>
</svg>
