<svg width="20" height="26" viewBox="0 0 20 26" fill="none" xmlns="http://www.w3.org/2000/svg">
<path d="M2 5.28292e-05C0.90064 5.28292e-05 0 0.900753 0 2.00005V24.0001C0 25.0995 0.90064 26.0001 2 26.0001H18C19.0994 26.0001 20 25.0995 20 24.0001V5.50005C20 5.49745 20 5.49484 20 5.49224C20 5.48964 20 5.48703 20 5.48443C19.9998 5.47269 19.9991 5.46096 19.998 5.44927C19.9975 5.44405 19.9968 5.43884 19.9961 5.43365C19.9881 5.36677 19.9667 5.30219 19.9331 5.24379C19.8996 5.18539 19.8545 5.13438 19.8008 5.0938L14.916 0.210993C14.9135 0.207703 14.9108 0.204453 14.9082 0.201223C14.8609 0.137793 14.7993 0.0864829 14.7283 0.0515129C14.6574 0.0165429 14.5791 -0.00109717 14.5 5.28292e-05H2ZM2 1.00005H14V4.00005C14 5.09945 14.9006 6.00005 16 6.00005H19V24.0001C19 24.5628 18.5627 25.0001 18 25.0001H2C1.43734 25.0001 1 24.5628 1 24.0001V2.00005C1 1.43745 1.43734 1.00005 2 1.00005ZM15 1.70708L18.293 5.00005H16C15.4373 5.00005 15 4.56275 15 4.00005V1.70708ZM4.457 11.0001C4.3244 11.0068 4.1999 11.0659 4.1109 11.1645C4.0219 11.263 3.97569 11.3928 3.98242 11.5254C3.98916 11.6581 4.0483 11.7826 4.1468 11.8716C4.2454 11.9606 4.3752 12.0068 4.5078 12.0001H11.1328H15.5C15.5663 12.001 15.632 11.9887 15.6935 11.964C15.755 11.9393 15.811 11.9027 15.8582 11.8561C15.9053 11.8096 15.9428 11.7542 15.9684 11.693C15.994 11.6319 16.0071 11.5663 16.0071 11.5001C16.0071 11.4338 15.994 11.3682 15.9684 11.3071C15.9428 11.2459 15.9053 11.1905 15.8582 11.144C15.811 11.0975 15.755 11.0608 15.6935 11.0361C15.632 11.0114 15.5663 10.9991 15.5 11.0001H11.1328H4.5078C4.4909 10.9992 4.4739 10.9992 4.457 11.0001ZM4.457 13.0001C4.3244 13.0068 4.1999 13.0659 4.1109 13.1645C4.0219 13.263 3.97569 13.3928 3.98242 13.5254C3.98916 13.6581 4.0483 13.7826 4.1468 13.8716C4.2454 13.9606 4.3752 14.0068 4.5078 14.0001H11.1328H15.5C15.5663 14.001 15.632 13.9887 15.6935 13.964C15.755 13.9393 15.811 13.9027 15.8582 13.8561C15.9053 13.8096 15.9428 13.7542 15.9684 13.693C15.994 13.6319 16.0071 13.5663 16.0071 13.5001C16.0071 13.4338 15.994 13.3682 15.9684 13.3071C15.9428 13.2459 15.9053 13.1905 15.8582 13.144C15.811 13.0975 15.755 13.0608 15.6935 13.0361C15.632 13.0114 15.5663 12.9991 15.5 13.0001H11.1328H4.5078C4.4909 12.9992 4.4739 12.9992 4.457 13.0001ZM4.457 15.0001C4.3244 15.0068 4.1999 15.0659 4.1109 15.1645C4.0219 15.263 3.97569 15.3928 3.98242 15.5254C3.98916 15.6581 4.0483 15.7826 4.1468 15.8716C4.2454 15.9606 4.3752 16.0068 4.5078 16.0001H11.1328H15.5C15.5663 16.001 15.632 15.9887 15.6935 15.964C15.755 15.9393 15.811 15.9027 15.8582 15.8561C15.9053 15.8096 15.9428 15.7542 15.9684 15.693C15.994 15.6319 16.0071 15.5663 16.0071 15.5001C16.0071 15.4338 15.994 15.3682 15.9684 15.3071C15.9428 15.2459 15.9053 15.1905 15.8582 15.144C15.811 15.0975 15.755 15.0608 15.6935 15.0361C15.632 15.0114 15.5663 14.9991 15.5 15.0001H11.1328H4.5078C4.4909 14.9992 4.4739 14.9992 4.457 15.0001ZM4.457 17.0001C4.3244 17.0068 4.1999 17.0659 4.1109 17.1645C4.0219 17.263 3.97569 17.3928 3.98242 17.5254C3.98916 17.6581 4.0483 17.7826 4.1468 17.8716C4.2454 17.9606 4.3752 18.0068 4.5078 18.0001H8.875H11.5C11.5663 18.001 11.632 17.9888 11.6935 17.964C11.755 17.9393 11.811 17.9027 11.8582 17.8561C11.9053 17.8096 11.9428 17.7542 11.9684 17.693C11.994 17.6319 12.0071 17.5663 12.0071 17.5001C12.0071 17.4338 11.994 17.3682 11.9684 17.3071C11.9428 17.2459 11.9053 17.1905 11.8582 17.144C11.811 17.0975 11.755 17.0608 11.6935 17.0361C11.632 17.0114 11.5663 16.9991 11.5 17.0001H8.875H4.5078C4.4909 16.9992 4.4739 16.9992 4.457 17.0001ZM13.4492 17.0001C13.3166 17.0068 13.1921 17.0659 13.1031 17.1645C13.0141 17.263 12.9679 17.3928 12.9746 17.5254C12.9813 17.6581 13.0405 17.7826 13.139 17.8716C13.2375 17.9606 13.3674 18.0068 13.5 18.0001C13.5663 18.001 13.632 17.9888 13.6935 17.964C13.755 17.9393 13.811 17.9027 13.8582 17.8561C13.9053 17.8096 13.9428 17.7542 13.9684 17.693C13.994 17.6319 14.0071 17.5663 14.0071 17.5001C14.0071 17.4338 13.994 17.3682 13.9684 17.3071C13.9428 17.2459 13.9053 17.1905 13.8582 17.144C13.811 17.0975 13.755 17.0608 13.6935 17.0361C13.632 17.0114 13.5663 16.9991 13.5 17.0001C13.4831 16.9992 13.4661 16.9992 13.4492 17.0001Z" fill="white"/>
</svg>
