<svg width="32" height="32" viewBox="0 0 32 32" fill="none" xmlns="http://www.w3.org/2000/svg">
<path d="M8 3.00005C6.90064 3.00005 6 3.90075 6 5.00005V27.0001C6 28.0995 6.90064 29.0001 8 29.0001H24C25.0994 29.0001 26 28.0995 26 27.0001V8.50005C26 8.49745 26 8.49484 26 8.49224C26 8.48964 26 8.48703 26 8.48443C25.9998 8.47269 25.9991 8.46096 25.998 8.44927C25.9975 8.44405 25.9968 8.43884 25.9961 8.43365C25.9881 8.36677 25.9667 8.30219 25.9331 8.24379C25.8996 8.18539 25.8545 8.13438 25.8008 8.0938L20.916 3.21099C20.9135 3.2077 20.9108 3.20445 20.9082 3.20122C20.8609 3.13779 20.7993 3.08648 20.7283 3.05151C20.6574 3.01654 20.5791 2.9989 20.5 3.00005H8ZM8 4.00005H20V7.00005C20 8.09945 20.9006 9.00005 22 9.00005H25V27.0001C25 27.5628 24.5627 28.0001 24 28.0001H8C7.43734 28.0001 7 27.5628 7 27.0001V5.00005C7 4.43745 7.43734 4.00005 8 4.00005ZM21 4.70708L24.293 8.00005H22C21.4373 8.00005 21 7.56275 21 7.00005V4.70708ZM10.457 14.0001C10.3244 14.0068 10.1999 14.0659 10.1109 14.1645C10.0219 14.263 9.97569 14.3928 9.98242 14.5254C9.98916 14.6581 10.0483 14.7826 10.1468 14.8716C10.2454 14.9606 10.3752 15.0068 10.5078 15.0001H17.1328H21.5C21.5663 15.001 21.632 14.9887 21.6935 14.964C21.755 14.9393 21.811 14.9027 21.8582 14.8561C21.9053 14.8096 21.9428 14.7542 21.9684 14.693C21.994 14.6319 22.0071 14.5663 22.0071 14.5001C22.0071 14.4338 21.994 14.3682 21.9684 14.3071C21.9428 14.2459 21.9053 14.1905 21.8582 14.144C21.811 14.0975 21.755 14.0608 21.6935 14.0361C21.632 14.0114 21.5663 13.9991 21.5 14.0001H17.1328H10.5078C10.4909 13.9992 10.4739 13.9992 10.457 14.0001ZM10.457 16.0001C10.3244 16.0068 10.1999 16.0659 10.1109 16.1645C10.0219 16.263 9.97569 16.3928 9.98242 16.5254C9.98916 16.6581 10.0483 16.7826 10.1468 16.8716C10.2454 16.9606 10.3752 17.0068 10.5078 17.0001H17.1328H21.5C21.5663 17.001 21.632 16.9887 21.6935 16.964C21.755 16.9393 21.811 16.9027 21.8582 16.8561C21.9053 16.8096 21.9428 16.7542 21.9684 16.693C21.994 16.6319 22.0071 16.5663 22.0071 16.5001C22.0071 16.4338 21.994 16.3682 21.9684 16.3071C21.9428 16.2459 21.9053 16.1905 21.8582 16.144C21.811 16.0975 21.755 16.0608 21.6935 16.0361C21.632 16.0114 21.5663 15.9991 21.5 16.0001H17.1328H10.5078C10.4909 15.9992 10.4739 15.9992 10.457 16.0001ZM10.457 18.0001C10.3244 18.0068 10.1999 18.0659 10.1109 18.1645C10.0219 18.263 9.97569 18.3928 9.98242 18.5254C9.98916 18.6581 10.0483 18.7826 10.1468 18.8716C10.2454 18.9606 10.3752 19.0068 10.5078 19.0001H17.1328H21.5C21.5663 19.001 21.632 18.9887 21.6935 18.964C21.755 18.9393 21.811 18.9027 21.8582 18.8561C21.9053 18.8096 21.9428 18.7542 21.9684 18.693C21.994 18.6319 22.0071 18.5663 22.0071 18.5001C22.0071 18.4338 21.994 18.3682 21.9684 18.3071C21.9428 18.2459 21.9053 18.1905 21.8582 18.144C21.811 18.0975 21.755 18.0608 21.6935 18.0361C21.632 18.0114 21.5663 17.9991 21.5 18.0001H17.1328H10.5078C10.4909 17.9992 10.4739 17.9992 10.457 18.0001ZM10.457 20.0001C10.3244 20.0068 10.1999 20.0659 10.1109 20.1645C10.0219 20.263 9.97569 20.3928 9.98242 20.5254C9.98916 20.6581 10.0483 20.7826 10.1468 20.8716C10.2454 20.9606 10.3752 21.0068 10.5078 21.0001H14.875H17.5C17.5663 21.001 17.632 20.9888 17.6935 20.964C17.755 20.9393 17.811 20.9027 17.8582 20.8561C17.9053 20.8096 17.9428 20.7542 17.9684 20.693C17.994 20.6319 18.0071 20.5663 18.0071 20.5001C18.0071 20.4338 17.994 20.3682 17.9684 20.3071C17.9428 20.2459 17.9053 20.1905 17.8582 20.144C17.811 20.0975 17.755 20.0608 17.6935 20.0361C17.632 20.0114 17.5663 19.9991 17.5 20.0001H14.875H10.5078C10.4909 19.9992 10.4739 19.9992 10.457 20.0001ZM19.4492 20.0001C19.3166 20.0068 19.1921 20.0659 19.1031 20.1645C19.0141 20.263 18.9679 20.3928 18.9746 20.5254C18.9813 20.6581 19.0405 20.7826 19.139 20.8716C19.2375 20.9606 19.3674 21.0068 19.5 21.0001C19.5663 21.001 19.632 20.9888 19.6935 20.964C19.755 20.9393 19.811 20.9027 19.8582 20.8561C19.9053 20.8096 19.9428 20.7542 19.9684 20.693C19.994 20.6319 20.0071 20.5663 20.0071 20.5001C20.0071 20.4338 19.994 20.3682 19.9684 20.3071C19.9428 20.2459 19.9053 20.1905 19.8582 20.144C19.811 20.0975 19.755 20.0608 19.6935 20.0361C19.632 20.0114 19.5663 19.9991 19.5 20.0001C19.4831 19.9992 19.4661 19.9992 19.4492 20.0001Z" fill="white"/>
</svg>
