<svg width="14" height="17" viewBox="0 0 14 17" fill="none" xmlns="http://www.w3.org/2000/svg">
<path d="M11.8516 2.95329C10.9593 2.51206 10.0024 2.18697 9.00193 2.00078C8.98372 1.99719 8.96551 2.00617 8.95613 2.02413C8.83307 2.26001 8.69677 2.56773 8.6013 2.8096C7.52523 2.63598 6.45468 2.63598 5.40068 2.8096C5.30522 2.56235 5.16395 2.26001 5.04034 2.02413C5.03096 2.00677 5.01275 1.99779 4.99454 2.00078C3.99462 2.18637 3.03774 2.51146 2.14488 2.95329C2.13715 2.95688 2.13053 2.96287 2.12612 2.97065C0.311146 5.89282 -0.186054 8.74316 0.0578551 11.5582C0.0589587 11.5719 0.0661325 11.5851 0.0760655 11.5935C1.27354 12.5412 2.43349 13.1165 3.57192 13.4979C3.59013 13.5039 3.60944 13.4967 3.62103 13.4805C3.89032 13.0842 4.13037 12.6663 4.3362 12.2269C4.34834 12.2012 4.33675 12.1706 4.31192 12.1604C3.93116 12.0048 3.5686 11.815 3.21985 11.5995C3.19226 11.5821 3.19005 11.5396 3.21543 11.5193C3.28883 11.46 3.36222 11.3983 3.4323 11.3361C3.44499 11.3247 3.46265 11.3223 3.47755 11.3295C5.76875 12.4568 8.24924 12.4568 10.5134 11.3295C10.5283 11.3217 10.546 11.3241 10.5592 11.3355C10.6293 11.3977 10.7027 11.46 10.7766 11.5193C10.802 11.5396 10.8004 11.5821 10.7728 11.5995C10.424 11.8192 10.0614 12.0048 9.68013 12.1598C9.6553 12.17 9.64426 12.2012 9.6564 12.2269C9.86665 12.6657 10.1067 13.0836 10.371 13.4799C10.3821 13.4967 10.4019 13.5039 10.4201 13.4979C11.5641 13.1165 12.724 12.5412 13.9215 11.5935C13.932 11.5851 13.9386 11.5725 13.9397 11.5588C14.2316 8.30432 13.4508 5.47734 11.8698 2.97125C11.8659 2.96287 11.8593 2.95688 11.8516 2.95329ZM4.67834 9.84414C3.98855 9.84414 3.42016 9.16164 3.42016 8.32348C3.42016 7.48532 3.97751 6.80282 4.67834 6.80282C5.38468 6.80282 5.94755 7.49131 5.93651 8.32348C5.93651 9.16164 5.37916 9.84414 4.67834 9.84414ZM9.33027 9.84414C8.64048 9.84414 8.0721 9.16164 8.0721 8.32348C8.0721 7.48532 8.62945 6.80282 9.33027 6.80282C10.0366 6.80282 10.5995 7.49131 10.5884 8.32348C10.5884 9.16164 10.0366 9.84414 9.33027 9.84414Z" fill="#E5E8EB"/>
</svg>
