<svg width="11" height="14" viewBox="0 0 11 14" fill="none" xmlns="http://www.w3.org/2000/svg">
<path d="M9.16565 9.49824C8.70163 9.49824 8.28627 9.68029 7.96981 9.96734L3.61191 7.43263C3.64336 7.29215 3.66769 7.15066 3.66769 7.0046C3.66769 6.85854 3.64285 6.71755 3.61191 6.57656L7.92061 4.06568C8.24924 4.36997 8.68385 4.56014 9.16565 4.56014C10.1815 4.56014 11 3.74313 11 2.72732C11 1.71356 10.1809 0.894531 9.16565 0.894531C8.15187 0.894531 7.33284 1.71356 7.33284 2.72684C7.33284 2.87492 7.35768 3.01388 7.38863 3.15487L3.0799 5.66777C2.75076 5.36197 2.31666 5.17229 1.83435 5.17229C0.818543 5.17229 0 5.99083 0 7.0046C0 8.01836 0.818543 8.83741 1.83435 8.83741C2.31613 8.83741 2.75076 8.64722 3.07939 8.34295L7.42967 10.8832C7.39975 11.0126 7.38098 11.1475 7.38098 11.2819C7.38098 12.2657 8.18276 13.066 9.16512 13.066C10.1485 13.066 10.9508 12.2662 10.9508 11.2819C10.9508 10.2975 10.149 9.49824 9.16565 9.49824Z" fill="#E5E8EB"/>
</svg>
