<svg width="22" height="22" viewBox="0 0 22 22" fill="none" xmlns="http://www.w3.org/2000/svg">
<path d="M17.9403 5.02815C17.8945 5.02815 17.821 5.03079 17.7742 5.03633C17.1746 5.10605 16.7084 5.63821 16.7084 6.24168V9.97285C16.7084 10.2733 16.552 10.5462 16.2516 10.5462H16.2418C15.9168 10.5462 15.5642 10.2533 15.5642 9.92822V3.90959C15.5642 3.30612 15.1696 2.77404 14.57 2.70424C14.5232 2.69879 14.444 2.69615 14.3982 2.69615C13.7504 2.69606 13.1878 3.22611 13.1878 3.87394V9.94979C13.1878 10.263 12.977 10.5168 12.6639 10.5168C12.3461 10.5168 12.1315 10.2591 12.1315 9.94134V2.21353C12.1315 1.60998 11.7042 1.0779 11.1046 1.00819C11.0578 1.00264 10.9949 1 10.9491 1C10.3013 0.999912 9.75491 1.52997 9.75491 2.1778V9.94204C9.75491 10.2595 9.49666 10.5168 9.17926 10.5168C8.86565 10.5168 8.61065 10.2626 8.61065 9.94908V3.90959C8.61065 3.30612 8.19467 2.77404 7.59508 2.70424C7.54825 2.69879 7.47969 2.69615 7.43392 2.69615C6.78609 2.69606 6.23411 3.22611 6.23411 3.87394V12.6411C6.23411 12.9663 6.00139 13.1836 5.72263 13.1836C5.5943 13.1836 5.48005 13.1376 5.37126 13.0348L3.9823 11.7155C3.75556 11.4887 3.46087 11.3754 3.16195 11.3754C2.86304 11.3754 2.56632 11.4887 2.33958 11.7155C1.8861 12.1689 1.88716 12.911 2.34064 13.3644L7.30558 19.9122C7.30611 19.9129 7.30673 19.9138 7.30681 19.9146L7.4311 21.5495C7.45055 21.8075 7.66567 21.9887 7.92419 21.9887C7.92445 21.9887 7.92463 21.9887 7.92489 21.9887L16.5905 22C16.8384 21.9996 17.0478 21.8248 17.0802 21.579L17.3063 19.861C17.3159 19.7873 17.3095 19.7196 17.3497 19.657C18.6715 17.5981 19.085 14.1985 19.085 10.5169V6.20603C19.0849 5.5582 18.5881 5.02815 17.9403 5.02815Z" fill="white"/>
</svg>
