<svg width="25" height="27" viewBox="0 0 25 27" fill="none" xmlns="http://www.w3.org/2000/svg">
<path d="M12.3193 1.20768C11.9922 1.33951 11.6699 1.58209 11.4844 1.82994C11.2939 2.09362 11.0986 2.51549 11.0596 2.75807C11.04 2.86354 11.0107 2.95319 10.9912 2.95319C10.9766 2.95319 10.8398 2.90045 10.6934 2.84244C10.3369 2.68951 9.75586 2.67897 9.36035 2.81608C8.81836 3.00592 8.32031 3.5069 8.12012 4.06061C8.03711 4.28209 8.03223 4.6987 8.00781 9.43424L7.9834 14.5706L7.46094 13.8323C6.72852 12.7987 6.45508 12.5561 5.78613 12.3663C5.09277 12.1712 4.40918 12.3715 3.90625 12.92C3.37891 13.4842 3.18848 14.3491 3.41309 15.1296C3.55469 15.62 5.5127 19.5276 6.33789 20.962C7.87598 23.6409 9.04297 24.8169 10.752 25.4233C11.6943 25.7555 12.6611 25.8926 14.0137 25.8979C16.2451 25.9032 17.7783 25.3126 19.0137 23.9784C19.8145 23.1135 20.3027 22.1907 20.6641 20.8565C20.9814 19.6805 20.9668 19.9811 20.9814 13.268C21.001 6.63405 21.001 6.61295 20.7324 6.00651C20.5566 5.60045 20.3174 5.32096 19.9854 5.13112C19.458 4.82526 18.8135 4.7778 18.2666 5.00455C18.0273 5.09948 18.0176 5.09948 18.0176 5.00983C18.0176 4.66706 17.9004 3.80748 17.8174 3.54908C17.5391 2.66315 16.8848 2.16217 16.0156 2.16217C15.6982 2.16217 15.1611 2.29401 15 2.40475C14.9365 2.45221 14.8779 2.47858 14.873 2.46803C14.8633 2.45748 14.7949 2.32565 14.7217 2.17272C14.541 1.81412 14.1846 1.45553 13.8281 1.27623C13.4521 1.09166 12.71 1.05475 12.3193 1.20768ZM13.4033 2.26237C13.6279 2.37311 13.833 2.59459 13.9258 2.82135C13.9746 2.94791 13.9941 3.93932 14.0137 7.5569L14.0381 12.1395L14.1748 12.2661C14.3604 12.4401 14.6436 12.4401 14.8291 12.2661L14.9658 12.1395L14.9902 8.05787C15.0098 4.44557 15.0244 3.96041 15.0928 3.79694C15.2588 3.41725 15.5176 3.26432 16.0059 3.26432C16.4502 3.26432 16.6357 3.38033 16.8213 3.77057L16.9678 4.08698L16.9922 8.33209C17.0117 11.7282 17.0312 12.6036 17.0801 12.6985C17.251 13.0255 17.749 12.9991 17.9492 12.6563C17.9736 12.6089 18.0029 11.3432 18.0176 9.67682L18.042 6.77643L18.1787 6.47057C18.3691 6.05924 18.5742 5.94323 19.0625 5.96959C19.6533 6.00123 19.8779 6.29127 19.9756 7.12975C20.0098 7.42506 20.0195 9.55026 20.0049 13.3735C19.9854 18.995 19.9854 19.1848 19.8828 19.7491C19.6973 20.809 19.3652 21.7161 18.8867 22.486C18.623 22.9026 18.0273 23.546 17.6367 23.8307C16.5039 24.6534 14.9072 24.9751 12.9395 24.7799C11.1426 24.6059 9.97559 24.0786 9.00391 23.0133C8.21289 22.1485 7.54883 21.1096 6.45508 19.0266C5.67871 17.5606 4.7168 15.6464 4.48731 15.1137C4.09668 14.212 4.47754 13.3946 5.28809 13.3946C5.59082 13.3946 5.8252 13.4842 6.04981 13.6899C6.1377 13.769 6.64063 14.4493 7.17285 15.2087C7.70508 15.968 8.19824 16.6167 8.2666 16.6589C8.42774 16.7538 8.72559 16.701 8.85742 16.5587C8.95996 16.4532 8.95996 16.4215 8.98438 10.5048C9.00879 4.60377 9.00879 4.56159 9.11133 4.35065C9.35059 3.85495 9.98047 3.64928 10.4443 3.91295C10.5664 3.98151 10.7324 4.12389 10.8105 4.23463L10.9619 4.4403L10.9863 8.26354L11.0107 12.0868L11.1719 12.2397C11.3965 12.4559 11.6455 12.4506 11.8457 12.2292L11.9873 12.071L12.0117 7.47252L12.0361 2.87408L12.1484 2.67897C12.417 2.2149 12.9541 2.03561 13.4033 2.26237Z" fill="white"/>
</svg>
