<svg width="26" height="24" viewBox="0 0 26 24" fill="none" xmlns="http://www.w3.org/2000/svg">
<path d="M6.06844 0.84375C4.84383 1.06641 3.78915 1.62891 2.85751 2.56641C0.976646 4.46484 0.332114 7.31836 1.19344 9.93164C1.53329 10.957 2.01376 11.7715 2.73446 12.5449C4.05282 13.957 12.9591 23.1914 13.0001 23.1914C13.0997 23.1914 23.4356 12.3926 23.7755 11.9414C25.3692 9.80273 25.627 6.78516 24.4259 4.37695C23.0431 1.61133 20.2423 0.234375 17.4415 0.949219C16.1759 1.27734 15.502 1.7168 14.0724 3.16992L13.0059 4.24805L11.8165 3.07031C10.8673 2.13281 10.5274 1.83398 10.1407 1.60547C8.91024 0.873047 7.42782 0.597656 6.06844 0.84375Z" fill="white"/>
</svg>
