<svg width="16" height="16" viewBox="0 0 16 16" fill="none" xmlns="http://www.w3.org/2000/svg">
<g clip-path="url(#clip0_113_777)">
<path fill-rule="evenodd" clip-rule="evenodd" d="M15.4839 2.42164V13.5623C15.4839 14.0888 15.2957 14.5409 14.9185 14.9181C14.5412 15.2953 14.0888 15.4843 13.5623 15.4843H2.42198C1.8951 15.4843 1.44305 15.2953 1.06583 14.9181C0.68861 14.5409 0.5 14.0888 0.5 13.5623V2.42164C0.5 1.8951 0.68861 1.44305 1.06583 1.06583C1.44305 0.68861 1.8951 0.5 2.42198 0.5H13.5626C14.0892 0.5 14.5412 0.68861 14.9185 1.06583C15.2957 1.44305 15.4839 1.8951 15.4839 2.42164ZM4.99727 7.96276C4.99727 8.76914 5.29146 9.45695 5.88018 10.0259C6.46891 10.5948 7.1762 10.8797 8.00205 10.8797C8.83474 10.8797 9.54476 10.5951 10.1335 10.0259C10.7222 9.45695 11.0164 8.76914 11.0164 7.96276C11.0164 7.15638 10.7222 6.46857 10.1335 5.89966C9.54476 5.33041 8.8344 5.04579 8.00205 5.04579C7.1762 5.04579 6.46891 5.33041 5.88018 5.89966C5.29146 6.46857 4.99727 7.15638 4.99727 7.96276ZM13.7871 13.1625V6.841H12.4699C12.5998 7.25068 12.665 7.67677 12.665 8.11891C12.665 8.93827 12.4569 9.69442 12.0408 10.387C11.6243 11.0796 11.0588 11.6273 10.3433 12.0309C9.62779 12.4341 8.84738 12.6357 8.00205 12.6357C6.72073 12.6357 5.62494 12.1949 4.71435 11.314C3.80376 10.4325 3.34863 9.36777 3.34863 8.11891C3.34863 7.67677 3.41355 7.25068 3.54374 6.84066H2.16845V13.1625C2.16845 13.3313 2.22517 13.4731 2.33895 13.5866C2.45273 13.7003 2.59419 13.7574 2.76333 13.7574H13.1916C13.3542 13.7574 13.494 13.7003 13.6112 13.5866C13.7284 13.4728 13.7868 13.3313 13.7871 13.1625ZM13.7868 13.1625H13.7871H13.7868ZM13.7871 2.84123C13.7871 2.65911 13.7219 2.50159 13.5917 2.368C13.4618 2.23474 13.3023 2.16811 13.1137 2.16811H11.4162C11.2279 2.16811 11.0683 2.23474 10.9382 2.368C10.8083 2.50159 10.7434 2.65911 10.7434 2.84123V4.45091C10.7434 4.63952 10.8083 4.79875 10.9382 4.92893C11.0683 5.05877 11.2279 5.12403 11.4162 5.12403H13.1137C13.3023 5.12403 13.4615 5.05911 13.5917 4.92893C13.7219 4.79875 13.7871 4.63952 13.7871 4.45091V2.84123Z" fill="#E5E8EB" fill-opacity="0.8"/>
</g>
<defs>
<clipPath id="clip0_113_777">
<rect width="15" height="15" fill="white" transform="translate(0.5 0.5)"/>
</clipPath>
</defs>
</svg>
