<svg width="17" height="17" viewBox="0 0 17 17" fill="none" xmlns="http://www.w3.org/2000/svg">
<g clip-path="url(#clip0_283_530)">
<path d="M0.939869 6.98793L5.47614 11.524C6.7291 12.7772 8.75911 12.7772 10.0122 11.524L11.5241 10.0119L10.0122 8.50008L8.50009 10.0119C8.08244 10.4287 7.40478 10.4296 6.98794 10.0119L2.45198 5.47595C2.03535 5.05879 2.03535 4.38057 2.45198 3.9633L3.96396 2.45133C4.3808 2.03477 5.05927 2.03477 5.47614 2.45133L7.09555 4.07102C7.8463 3.62918 8.69955 3.43969 9.54431 3.4966L6.98794 0.939349C5.73498 -0.313116 3.70399 -0.313116 2.45198 0.939349L0.939833 2.45133C-0.313124 3.70386 -0.313122 5.73546 0.939869 6.98793ZM9.90558 12.9297L11.5241 14.5481C11.9418 14.9658 12.6194 14.9648 13.0361 14.5481L14.5482 13.0362C14.9658 12.6193 14.9658 11.9417 14.5482 11.524L10.0121 6.98789C9.5954 6.57133 8.91665 6.57133 8.50005 6.98789L6.9879 8.50004L5.47611 6.98789L6.9879 5.47591C8.24104 4.22345 10.271 4.22345 11.5241 5.47591L16.0602 10.0119C17.3133 11.2652 17.3133 13.2962 16.0602 14.5481L14.5482 16.0601C13.2961 17.3133 11.2651 17.3133 10.0121 16.0601L7.45594 13.5038C8.30062 13.5601 9.15165 13.3704 9.90558 12.9297Z" fill="#858585"/>
</g>
<defs>
<clipPath id="clip0_283_530">
<rect width="17" height="17" fill="white" transform="matrix(-1 0 0 1 17 0)"/>
</clipPath>
</defs>
</svg>
