<svg width="1052" height="268" viewBox="0 0 1052 268" fill="none" xmlns="http://www.w3.org/2000/svg">
<path d="M380.98 133.19C377.12 143.15 371.17 151.01 363.14 156.75C355.11 162.49 345.79 165.37 335.21 165.37C320.94 165.37 308.94 160.48 299.2 150.7C289.46 140.92 284.59 128.89 284.59 114.62C284.59 100.62 289.46 88.8002 299.2 79.1502C308.94 69.5002 320.81 64.6802 334.81 64.6802C345.76 64.6802 355.34 67.5502 363.55 73.3002C371.76 79.0502 377.57 87.0802 380.98 97.4002H359.71C353.96 87.5302 345.62 82.5902 334.67 82.5902C325.96 82.5902 318.72 85.7102 312.93 91.9502C307.14 98.1902 304.25 105.7 304.25 114.5C304.25 123.3 307.12 130.92 312.87 137.39C318.79 144.12 326.11 147.49 334.81 147.49C345.85 147.49 354.06 142.73 359.45 133.22H380.98V133.19Z" fill="#E5E8EB"/>
<path d="M454.35 163.48H436.85V125.11C436.85 113.62 432.66 107.88 424.27 107.88C414.98 107.88 410.33 114.52 410.33 127.8V163.48H392.83V59.8203H410.33V101.15C414.2 95.1403 420.28 92.1303 428.56 92.1303C437.02 92.1303 443.5 94.6903 448 99.8003C452.23 104.74 454.35 111.47 454.35 119.99V163.48V163.48Z" fill="#E5E8EB"/>
<path d="M518.16 141.54H535.93C529.47 157.52 518.16 165.5 502 165.5C491.32 165.5 482.57 162.02 475.75 155.07C468.93 148.11 465.52 139.3 465.52 128.62C465.52 118.3 468.97 109.55 475.89 102.37C482.8 95.1901 491.42 91.6001 501.74 91.6001C509.64 91.6001 516.57 93.6701 522.54 97.7901C528.51 101.92 532.84 107.71 535.53 115.16C537.23 119.83 538.09 126.15 538.09 134.14H482.49C484.37 145.18 490.93 150.7 502.15 150.7C506.46 150.7 509.69 150.21 511.84 149.22C514.7 147.78 516.81 145.22 518.16 141.54ZM520.85 121.35C518.61 111.48 512.32 106.54 502 106.54C491.95 106.54 485.58 111.48 482.88 121.35H520.85Z" fill="#E5E8EB"/>
<path d="M617.38 138.31C615.31 146.84 611.14 153.5 604.86 158.3C598.58 163.1 590.99 165.5 582.11 165.5C571.43 165.5 562.63 162.02 555.72 155.07C548.81 148.11 545.35 139.3 545.35 128.62C545.35 117.76 548.74 108.9 555.51 102.03C562.29 95.16 571.1 91.73 581.96 91.73C591.11 91.73 598.74 93.97 604.85 98.46C611.22 103.22 615.35 109.99 617.24 118.79H599.74C596.24 111.25 590.14 107.48 581.43 107.48C575.42 107.48 570.75 109.48 567.43 113.47C564.11 117.46 562.45 122.51 562.45 128.62C562.45 134.54 564.27 139.55 567.9 143.63C571.53 147.71 576.27 149.76 582.1 149.76C591.07 149.76 596.95 145.95 599.74 138.32H617.38V138.31Z" fill="#E5E8EB"/>
<path d="M645.65 59.8203V124.71L667.12 93.7503H686.84L661.8 126.06L689 163.48H669.14L645.65 129.15V163.48H628.15V59.8203H645.65Z" fill="#E5E8EB"/>
<path d="M697.61 163.48V66.5503H726.02C735.26 66.5503 742.58 68.4803 747.96 72.3403C754.15 76.7403 757.25 83.3803 757.25 92.2603C757.25 100.79 753.61 107.16 746.35 111.38C756.85 114.88 762.1 122.33 762.1 133.73C762.1 143.69 758.6 151.28 751.6 156.48C745.32 161.15 737.01 163.48 726.69 163.48H697.61ZM738.27 94.2203C738.27 87.3603 733.87 83.9203 725.08 83.9203H716.6V105.19H723.47C733.33 105.19 738.27 101.53 738.27 94.2203ZM716.59 121.35V146.12H727.9C734.99 146.12 739.66 144.27 741.9 140.57C742.89 138.95 743.38 136.73 743.38 133.94C743.38 125.55 738.31 121.35 728.17 121.35H716.59Z" fill="#E5E8EB"/>
<path d="M808.41 93.75V112.73C807.24 112.01 804.73 111.65 800.87 111.65C794.41 111.65 791.18 115.91 791.18 124.44V163.48H773.68V93.74H790.37V101.68C791.63 99.44 793.47 97.4 795.89 95.55C798.31 93.71 800.69 92.79 803.03 92.79C804.9 92.81 806.7 93.12 808.41 93.75Z" fill="#E5E8EB"/>
<path d="M889.31 163.48H872.35V155.27C867.03 162 859.73 165.37 850.44 165.37C840.16 165.37 831.75 161.83 825.21 154.74C818.67 147.65 815.4 138.9 815.4 128.49C815.4 118.17 818.63 109.46 825.09 102.37C831.55 95.2802 839.9 91.7402 850.13 91.7402C859.55 91.7402 866.78 94.9302 871.8 101.3V93.7603H889.3V163.48H889.31ZM872.35 128.88C872.35 122.96 870.42 117.91 866.56 113.73C862.7 109.56 857.85 107.47 852.02 107.47C846.28 107.47 841.56 109.54 837.88 113.66C834.2 117.79 832.36 122.73 832.36 128.47C832.36 134.12 834.27 139.08 838.08 143.35C841.89 147.61 846.63 149.74 852.28 149.74C857.75 149.74 862.46 147.63 866.42 143.41C870.37 139.21 872.35 134.36 872.35 128.88Z" fill="#E5E8EB"/>
<path d="M965.91 163.48H948.41V124.57C948.41 113.44 944.03 107.88 935.29 107.88C925.91 107.88 921.22 114.52 921.22 127.8V163.48H903.72V93.7399H920.55V101.55C924.86 95.2699 931.14 92.1299 939.4 92.1299C948.1 92.1299 954.7 94.5999 959.19 99.5399C963.68 104.48 965.92 111.34 965.92 120.14V163.48H965.91Z" fill="#E5E8EB"/>
<path d="M1051.13 163.48H1033.63V155.81C1028.36 162.18 1021.12 165.37 1011.92 165.37C1001.74 165.37 993.41 161.83 986.93 154.74C980.45 147.65 977.22 138.9 977.22 128.49C977.22 118.26 980.43 109.57 986.85 102.44C993.27 95.3101 1001.55 91.7401 1011.69 91.7401C1020.39 91.7401 1027.71 94.7901 1033.63 100.89V59.8301H1051.13V163.48ZM1034.03 128.75C1034.03 122.74 1032.21 117.69 1028.58 113.6C1024.95 109.52 1020.17 107.47 1014.24 107.47C1008.41 107.47 1003.61 109.51 999.84 113.6C996.07 117.68 994.19 122.64 994.19 128.48C994.19 134.22 996.05 139.18 999.78 143.36C1003.5 147.53 1008.24 149.62 1013.98 149.62C1019.72 149.62 1024.5 147.58 1028.32 143.49C1032.12 139.41 1034.03 134.49 1034.03 128.75Z" fill="#E5E8EB"/>
<path d="M267.14 34.5601V233.46C267.14 252.06 252.06 267.13 233.45 267.13H34.5499C15.9499 267.13 0.879883 252.05 0.879883 233.46V34.5601C0.879883 15.9401 15.9599 0.870117 34.5499 0.870117H233.45C252.06 0.870117 267.14 15.9401 267.14 34.5601Z" fill="url(#paint0_linear_622_5774)"/>
<path d="M377.07 214.83C375.37 221.85 371.93 227.34 366.76 231.3C361.58 235.25 355.34 237.23 348.02 237.23C339.22 237.23 331.98 234.37 326.29 228.64C320.6 222.91 317.75 215.65 317.75 206.85C317.75 197.91 320.54 190.61 326.12 184.95C331.7 179.29 338.96 176.47 347.91 176.47C355.45 176.47 361.73 178.32 366.76 182.01C372.01 185.93 375.41 191.51 376.96 198.75H362.54C359.66 192.54 354.63 189.43 347.46 189.43C342.51 189.43 338.66 191.08 335.93 194.36C333.19 197.65 331.83 201.81 331.83 206.83C331.83 211.71 333.33 215.83 336.32 219.19C339.31 222.55 343.21 224.24 348.02 224.24C355.41 224.24 360.25 221.1 362.55 214.81H377.07V214.83Z" fill="#2081E2"/>
<path d="M444.82 206.52C444.82 215.54 441.92 222.9 436.12 228.59C430.31 234.28 422.91 237.13 413.89 237.13C404.87 237.13 397.46 234.27 391.66 228.54C385.86 222.81 382.96 215.47 382.96 206.53C382.96 197.81 385.93 190.6 391.89 184.91C397.84 179.22 405.18 176.37 413.9 176.37C422.7 176.37 430.05 179.22 435.97 184.91C441.87 190.59 444.82 197.8 444.82 206.52ZM397.7 206.85C397.7 211.8 399.16 215.89 402.08 219.1C405 222.32 408.94 223.92 413.89 223.92C418.84 223.92 422.78 222.31 425.7 219.1C428.62 215.88 430.08 211.8 430.08 206.85C430.08 201.75 428.64 197.59 425.76 194.38C422.88 191.16 418.92 189.56 413.89 189.56C408.94 189.56 405 191.19 402.08 194.44C399.15 197.68 397.7 201.82 397.7 206.85Z" fill="#2081E2"/>
<path d="M538.08 235.57H523.66V202.97C523.66 193.95 520.29 189.44 513.57 189.44C506.62 189.44 503.15 194.43 503.15 204.41V235.57H488.96V205.19C488.96 194.69 485.59 189.44 478.87 189.44C471.62 189.44 468 194.58 468 204.85V235.57H453.81V178.13H467.23V184.67C470.63 179.42 475.77 176.8 482.64 176.8C490.18 176.8 495.69 180.13 499.16 186.78C502.63 180.13 508.66 176.8 517.24 176.8C523.82 176.8 528.94 178.8 532.6 182.79C536.26 186.78 538.09 192.11 538.09 198.76V235.57H538.08Z" fill="#2081E2"/>
<path d="M68.2 59.8301C80.052 59.8301 89.66 50.2222 89.66 38.3701C89.66 26.5181 80.052 16.9102 68.2 16.9102C56.348 16.9102 46.74 26.5181 46.74 38.3701C46.74 50.2222 56.348 59.8301 68.2 59.8301Z" fill="white"/>
<path opacity="0.38" d="M267.14 138.97V233.46C267.14 252.06 252.06 267.13 233.45 267.13H146.27L75.38 196.24C75.38 196.24 66.08 124.01 63.23 119.74C60.38 115.47 93.18 78.3803 93.18 78.3803L143.8 66.2803L198.69 70.5103L267.14 138.97Z" fill="url(#paint1_linear_622_5774)"/>
<path d="M135.62 192.68C103.23 192.68 76.9599 166.41 76.9599 133.99C76.9599 101.6 103.23 75.3299 135.62 75.3299C156.73 75.3299 175.25 86.4899 185.57 103.22H218.1C212.15 85.2299 202.01 71.2099 187.69 61.1699C173.36 51.1499 156.63 46.1499 137.52 46.1499C113.1 46.1499 92.3699 54.5499 75.3799 71.3999C58.3899 88.2299 49.8899 108.86 49.8899 133.3C49.8899 158.19 58.3899 179.18 75.3799 196.25C92.3699 213.31 113.34 221.86 138.23 221.86C156.7 221.86 172.95 216.86 186.97 206.82C200.99 196.8 211.36 183.09 218.1 165.72H184.97C174.56 181.95 156.35 192.68 135.62 192.68Z" fill="white"/>
<path d="M307.44 236.91H286.84C285.6 236.91 284.59 235.9 284.59 234.66V214.06C284.59 212.82 285.6 211.81 286.84 211.81H307.44C308.68 211.81 309.69 212.82 309.69 214.06V234.66C309.69 235.9 308.68 236.91 307.44 236.91Z" fill="#2081E2"/>
<defs>
<linearGradient id="paint0_linear_622_5774" x1="11.6195" y1="11.6155" x2="215.954" y2="215.95" gradientUnits="userSpaceOnUse">
<stop offset="0.0944" stop-color="#2081E2"/>
<stop offset="1" stop-color="#2065E2"/>
</linearGradient>
<linearGradient id="paint1_linear_622_5774" x1="47.3054" y1="43.6551" x2="254.814" y2="251.164" gradientUnits="userSpaceOnUse">
<stop offset="0.2061"/>
<stop offset="1" stop-opacity="0"/>
</linearGradient>
</defs>
</svg>
