<svg width="26" height="26" viewBox="0 0 26 26" fill="none" xmlns="http://www.w3.org/2000/svg">
<path d="M12.416 1.35371C12.7105 1.49082 24.0144 12.8303 24.3648 13.3381C24.8168 13.983 24.9488 14.4857 24.8117 15.024C24.6898 15.4861 24.4461 15.8873 23.9281 16.4662C23.2476 17.2229 16.1637 24.2662 15.8691 24.4744C14.884 25.1752 14.1121 25.1752 13.1269 24.4744C12.9848 24.3779 10.273 21.6967 7.08905 18.5279C2.84374 14.2877 1.28476 12.7033 1.21366 12.5459L1.11718 12.3326L1.57421 7.69629C1.82304 5.14707 2.04647 2.96348 2.06171 2.84668C2.10741 2.54707 2.34608 2.28809 2.64062 2.22207C2.76757 2.1916 4.86991 1.97324 7.31249 1.73965C9.75507 1.50098 11.8574 1.29277 11.9844 1.27754C12.1469 1.26231 12.2738 1.28262 12.416 1.35371ZM7.61718 3.16152C5.4539 3.36973 3.62577 3.5627 3.55468 3.58301L3.42772 3.61856L3.01132 7.80801L2.59491 11.9975L8.191 17.5885C11.4664 20.8639 13.9039 23.2557 14.0664 23.3674C14.4219 23.601 14.5742 23.601 14.9297 23.3674C15.3308 23.1033 23.1664 15.2576 23.3035 14.9834C23.4508 14.6939 23.4355 14.5264 23.2527 14.2268C23.1613 14.0846 20.7441 11.6217 17.4738 8.35137C12.1367 3.0041 11.8473 2.72988 11.7051 2.75527C11.6187 2.77051 9.78046 2.95332 7.61718 3.16152Z" fill="#0082E6"/>
<path d="M8.07465 4.81709C9.46098 4.95928 10.6036 6.14756 10.7 7.5542C10.7661 8.45303 10.4664 9.24014 9.81137 9.89014C9.21215 10.4894 8.5723 10.7534 7.72933 10.7534C6.41918 10.7534 5.31215 9.946 4.87035 8.67139C4.71293 8.2042 4.70785 7.41709 4.8602 6.91943C5.29691 5.52803 6.60707 4.66982 8.07465 4.81709ZM7.19613 6.33545C6.82035 6.47764 6.53598 6.73662 6.35316 7.10732C6.00785 7.79795 6.23129 8.62568 6.88637 9.0624C7.56176 9.50928 8.47074 9.34678 8.97348 8.68154C9.1766 8.41748 9.25785 8.13311 9.25277 7.72686C9.24262 6.696 8.17113 5.96982 7.19613 6.33545Z" fill="#0082E6"/>
<path d="M16.1739 8.97602C16.2297 8.99633 16.3668 9.10805 16.4735 9.22485C16.7122 9.4686 16.7426 9.69711 16.5598 9.84946C16.3618 10.0018 16.2094 9.96625 15.9403 9.69203C15.6407 9.3975 15.6102 9.19946 15.8235 9.03188C15.9707 8.91508 16.0164 8.91 16.1739 8.97602Z" fill="#0082E6"/>
<path d="M19.1242 11.8806C20.3176 13.079 21.0641 13.8661 21.1555 14.0286C21.2672 14.2165 21.2977 14.3435 21.3027 14.5619C21.3027 14.9072 21.1961 15.1357 20.8559 15.5064C20.5766 15.8111 20.3937 15.8619 20.2109 15.679C20.0484 15.5165 20.084 15.3236 20.3328 15.029C20.602 14.7142 20.6375 14.6228 20.5664 14.4349C20.5359 14.3536 19.6574 13.4294 18.6113 12.3783C16.5801 10.3419 16.575 10.3267 16.8086 10.0931C16.8695 10.0322 16.9762 9.99154 17.0727 9.99154C17.225 9.99154 17.418 10.1693 19.1242 11.8806Z" fill="#0082E6"/>
</svg>
