<svg width="22" height="22" viewBox="0 0 22 22" fill="none" xmlns="http://www.w3.org/2000/svg">
<path d="M0.875332 6.03973C1.35876 6.03973 1.75066 5.64783 1.75066 5.16439C1.75066 4.68096 1.35876 4.28906 0.875332 4.28906C0.391899 4.28906 0 4.68096 0 5.16439C0 5.64783 0.391899 6.03973 0.875332 6.03973Z" fill="white"/>
<path d="M22.0003 4.28906H4.37695V6.03973H22.0003V4.28906Z" fill="white"/>
<path d="M0.875332 17.7106C1.35876 17.7106 1.75066 17.3187 1.75066 16.8353C1.75066 16.3519 1.35876 15.96 0.875332 15.96C0.391899 15.96 0 16.3519 0 16.8353C0 17.3187 0.391899 17.7106 0.875332 17.7106Z" fill="white"/>
<path d="M22.0003 15.96H4.37695V17.7106H22.0003V15.96Z" fill="white"/>
<path d="M0.875332 11.8757C1.35876 11.8757 1.75066 11.4838 1.75066 11.0003C1.75066 10.5169 1.35876 10.125 0.875332 10.125C0.391899 10.125 0 10.5169 0 11.0003C0 11.4838 0.391899 11.8757 0.875332 11.8757Z" fill="white"/>
<path d="M22.0003 10.125H4.37695V11.8757H22.0003V10.125Z" fill="white"/>
</svg>
