<svg width="22" height="22" viewBox="0 0 22 22" fill="none" xmlns="http://www.w3.org/2000/svg">
<g clip-path="url(#clip0_127_836)">
<path fill-rule="evenodd" clip-rule="evenodd" d="M5.29812 4.62391C5.29812 2.02891 7.40515 -0.078125 10.0001 -0.078125C12.5951 -0.078125 14.7026 2.02891 14.7026 4.62391V7.89156L14.945 8.12313C15.5905 8.76859 16.0958 9.51391 16.4619 10.3595C16.8275 11.2052 17.0103 12.108 17.0103 13.068C17.0103 14.028 16.8275 14.9317 16.4619 15.7797C16.0958 16.6277 15.5905 17.3734 14.945 18.0161C14.2995 18.6592 13.5542 19.1636 12.7086 19.5297C11.863 19.8953 10.9601 20.0781 10.0001 20.0781C9.04015 20.0781 8.13733 19.8953 7.29171 19.5297C6.44608 19.1636 5.70077 18.6592 5.0553 18.0161C4.40983 17.3734 3.90452 16.6277 3.53843 15.7797C3.1728 14.9317 2.98999 14.028 2.98999 13.068C2.98999 12.108 3.1728 11.2052 3.53843 10.3595C3.90452 9.51391 4.4089 8.76859 5.05155 8.12313C5.13218 8.0425 5.21421 7.96375 5.29812 7.88734V4.62391ZM14.3544 17.1916C14.1214 16.8841 13.7928 16.5953 13.3691 16.3248C12.9448 16.0548 12.4466 15.8345 11.8733 15.6644C11.3 15.4942 10.6756 15.4094 10.0001 15.4094C9.32468 15.4094 8.7003 15.4942 8.12702 15.6644C7.55374 15.8345 7.05546 16.0548 6.63124 16.3248C6.20749 16.5953 5.8789 16.8841 5.64593 17.1916L5.63187 17.2895C5.98577 17.6716 6.39124 18.0034 6.8478 18.2856C7.30483 18.5673 7.79983 18.7853 8.33327 18.9391C8.86671 19.0928 9.42218 19.1697 10.0001 19.1697C10.5781 19.1697 11.1336 19.0928 11.667 18.9391C12.2005 18.7853 12.6969 18.5673 13.1558 18.2856C13.6147 18.0034 14.0192 17.6716 14.3684 17.2895L14.3544 17.1916ZM10.0001 9.00016C9.55765 9.00016 9.15546 9.11781 8.79452 9.35312C8.43358 9.58844 8.14577 9.90156 7.93155 10.293C7.71687 10.6844 7.61233 11.1133 7.61702 11.5792C7.61702 12.078 7.72155 12.5252 7.93155 12.9213C8.14108 13.3173 8.42655 13.6305 8.78749 13.8611C9.14843 14.0917 9.55296 14.2094 10.0001 14.2141C10.4473 14.2141 10.8519 14.0987 11.2128 13.8681C11.5737 13.6375 11.8592 13.323 12.0692 12.9245C12.2787 12.5261 12.3833 12.078 12.3833 11.5792C12.3833 11.1133 12.2773 10.6844 12.0655 10.293C11.8536 9.90156 11.5667 9.58844 11.2058 9.35312C10.8448 9.11781 10.4426 9.00016 10.0001 9.00016ZM12.4456 6.50219V4.59578C12.4456 3.24625 11.3497 2.15031 10.0001 2.15031C8.65062 2.15031 7.55468 3.24625 7.55468 4.59578V6.49797C8.32155 6.20406 9.13437 6.05781 9.99312 6.05781C10.8561 6.05781 11.6736 6.20547 12.4456 6.50219Z" fill="#E5E8EB"/>
</g>
<defs>
<clipPath id="clip0_127_836">
<rect width="22" height="22" fill="white"/>
</clipPath>
</defs>
</svg>
