<svg width="22" height="22" viewBox="0 0 22 22" fill="none" xmlns="http://www.w3.org/2000/svg">
<g clip-path="url(#clip0_127_845)">
<path fill-rule="evenodd" clip-rule="evenodd" d="M6.82946 19.2563C5.68372 18.7606 4.67319 18.0775 3.79874 17.2057C2.9243 16.3343 2.23942 15.3242 1.74365 14.175C1.24788 13.0257 1 11.8008 1 10.5C1 9.1996 1.24788 7.97609 1.74365 6.82991C2.23942 5.68372 2.92253 4.67363 3.79433 3.79874C4.66523 2.9243 5.674 2.23898 6.82019 1.74365C7.96637 1.24744 9.18988 1 10.4907 1C11.7916 1 13.0164 1.24744 14.1657 1.74365C15.315 2.23898 16.3268 2.9243 17.2013 3.79874C18.0757 4.67363 18.7606 5.68372 19.2563 6.82991C19.7521 7.97609 20 9.1996 20 10.5C20 11.8008 19.7521 13.0257 19.2563 14.175C18.7606 15.3242 18.0757 16.3343 17.2013 17.2057C16.3268 18.0775 15.3163 18.7606 14.1705 19.2563C13.0243 19.7521 11.8008 20 10.5 20C9.19916 20 7.97565 19.7521 6.82946 19.2563ZM16.4006 16.0882C16.0851 15.6715 15.6397 15.28 15.0653 14.9137C14.4909 14.5474 13.8148 14.2492 13.038 14.019C12.2617 13.7883 11.4155 13.673 10.5 13.673C9.58447 13.673 8.7383 13.7883 7.96195 14.019C7.18516 14.2492 6.50912 14.5474 5.9347 14.9137C5.36028 15.28 4.91488 15.6715 4.5994 16.0882L4.5804 16.2208C5.05981 16.7386 5.60949 17.1884 6.22809 17.5707C6.84714 17.9529 7.51833 18.2476 8.24121 18.4561C8.96365 18.6647 9.71702 18.7685 10.5 18.7685C11.283 18.7685 12.0363 18.6647 12.7592 18.4561C13.4821 18.2476 14.1546 17.9529 14.7768 17.5707C15.3985 17.1884 15.9464 16.7386 16.4196 16.2208L16.4006 16.0882ZM10.5 4.98735C9.9004 4.98735 9.35514 5.14686 8.866 5.46588C8.37642 5.78447 7.9867 6.20953 7.6964 6.73977C7.40565 7.27 7.26381 7.85105 7.27 8.48247C7.27 9.15807 7.41228 9.7643 7.6964 10.3012C7.98051 10.8376 8.36714 11.2627 8.85672 11.575C9.34586 11.8879 9.89377 12.047 10.5 12.0536C11.1058 12.0536 11.6541 11.8972 12.1433 11.5843C12.6329 11.2719 13.0195 10.8455 13.3036 10.306C13.5877 9.76607 13.73 9.15807 13.73 8.48247C13.73 7.85105 13.5864 7.27 13.2987 6.73977C13.0115 6.20953 12.6236 5.78447 12.134 5.46588C11.6449 5.14686 11.0996 4.98735 10.5 4.98735Z" fill="#E5E8EB"/>
</g>
<defs>
<clipPath id="clip0_127_845">
<rect width="22" height="22" fill="white"/>
</clipPath>
</defs>
</svg>
