<svg width="23" height="23" viewBox="0 0 23 23" fill="none" xmlns="http://www.w3.org/2000/svg">
<g clip-path="url(#clip0_127_851)">
<path fill-rule="evenodd" clip-rule="evenodd" d="M20.4844 18.5402C20.4844 19.9848 19.311 21.1582 17.8663 21.1582H5.13367C3.68854 21.1582 2.51562 19.9848 2.51562 18.5402V15.0938H20.4844V18.5402ZM14.7034 17.21H13.7546V18.272C13.7546 18.4458 13.6136 18.5864 13.4397 18.5864H9.56027C9.38643 18.5864 9.24537 18.4458 9.24537 18.272V17.21H8.29662V18.634C8.29662 19.0455 8.63084 19.3802 9.04277 19.3802H13.9572C14.3692 19.3802 14.7034 19.0455 14.7034 18.634V17.21ZM20.4844 14.3301H2.51562V8.66992H20.4844V14.3301ZM14.7034 10.6698H13.7546V11.7313C13.7546 11.9052 13.6136 12.0463 13.4397 12.0463H9.56027C9.38643 12.0463 9.24537 11.9052 9.24537 11.7313V10.6698H8.29662V12.0934C8.29662 12.5054 8.63084 12.8396 9.04277 12.8396H13.9572C14.3692 12.8396 14.7034 12.5054 14.7034 12.0934V10.6698ZM2.51562 4.45984C2.51562 3.01471 3.68854 1.8418 5.13367 1.8418H17.8663C19.311 1.8418 20.4844 3.01471 20.4844 4.45984V7.90625H2.51562V4.45984ZM14.7034 4.12922H13.7546V5.19117C13.7546 5.36457 13.6136 5.50562 13.4397 5.50562H9.56027C9.38643 5.50562 9.24537 5.36457 9.24537 5.19117V4.12922H8.29662V5.55279C8.29662 5.96473 8.63084 6.29895 9.04277 6.29895H13.9572C14.3692 6.29895 14.7034 5.96473 14.7034 5.55279V4.12922Z" fill="#E5E8EB"/>
</g>
<defs>
<clipPath id="clip0_127_851">
<rect width="23" height="23" fill="white"/>
</clipPath>
</defs>
</svg>
