<svg width="20" height="20" viewBox="0 0 20 20" fill="none" xmlns="http://www.w3.org/2000/svg">
<path fill-rule="evenodd" clip-rule="evenodd" d="M17.9581 17.3437C17.9581 18.1875 17.2725 18.8727 16.4287 18.8727H2.52933C1.68514 18.8727 1 18.1875 1 17.3437V3.67733C1 2.83315 1.68514 2.14801 2.52933 2.14801H16.4287C17.2725 2.14801 17.9581 2.83315 17.9581 3.67733V5.59911H12.3061C10.8902 5.59911 9.74079 6.7485 9.74079 8.16443V12.8456C9.74079 14.2674 10.895 15.4219 12.3168 15.4219H17.9581V17.3437ZM17.9621 12.6928C17.9621 12.9928 17.7184 13.2362 17.4183 13.2362H12.4607C12.1611 13.2362 11.9173 12.9928 11.9173 12.6928V8.32826C11.9173 8.02821 12.1611 7.78449 12.4607 7.78449H17.4183C17.7184 7.78449 17.9621 8.02821 17.9621 8.32826V12.6928ZM15.3287 10.3355C15.3287 9.77917 14.8769 9.32781 14.3207 9.32781H13.9455C13.3892 9.32781 12.9375 9.77917 12.9375 10.3355V10.6852C12.9375 11.2415 13.3892 11.6932 13.9455 11.6932H14.3207C14.8769 11.6932 15.3287 11.2415 15.3287 10.6852V10.3355Z" fill="#E5E8EB"/>
</svg>
