<svg width="22" height="22" viewBox="0 0 22 22" fill="none" xmlns="http://www.w3.org/2000/svg">
<g clip-path="url(#clip0_127_830)">
<path fill-rule="evenodd" clip-rule="evenodd" d="M6.83521 19.2546C5.68947 18.7584 4.67893 18.0735 3.8036 17.2013C2.92784 16.329 2.24207 15.3185 1.74542 14.1697C1.24833 13.0208 1 11.7977 1 10.5C1 9.20226 1.24833 7.98095 1.74542 6.83521C2.24207 5.68947 2.92651 4.67893 3.79874 3.8036C4.67098 2.92784 5.68019 2.24207 6.82549 1.74498C7.97123 1.24833 9.19298 1 10.4907 1C11.7885 1 13.0115 1.24833 14.1599 1.74498C15.3088 2.24207 16.3211 2.92784 17.1964 3.8036C18.0722 4.67893 18.7584 5.68947 19.2546 6.83521C19.7517 7.98095 20 9.20226 20 10.5C20 11.7977 19.7517 13.0208 19.2546 14.1697C18.7584 15.3185 18.0722 16.329 17.1964 17.2013C16.3211 18.0735 15.3105 18.7584 14.1648 19.2546C13.0195 19.7517 11.7977 20 10.5 20C9.2027 20 7.98095 19.7517 6.83521 19.2546ZM12.1371 12.8631C12.4605 12.7084 12.7062 12.4658 12.875 12.1353L15.8173 6.092C15.9861 5.73365 15.9689 5.44865 15.7648 5.23788C15.5606 5.02667 15.2725 5.009 14.9 5.1853L8.86733 8.12765C8.55095 8.27523 8.30484 8.52135 8.12898 8.866L5.17602 14.9195C5.06335 15.1515 5.0386 15.3574 5.10179 15.5363C5.16498 15.7162 5.28649 15.8372 5.46588 15.9009C5.64528 15.964 5.85119 15.9393 6.08272 15.8271L12.1371 12.8631ZM9.68963 11.3055C9.46914 11.0824 9.35912 10.812 9.35912 10.4951C9.35912 10.1788 9.46914 9.91012 9.68963 9.68963C9.91012 9.46914 10.1788 9.35912 10.4951 9.35912C10.812 9.35912 11.0824 9.46914 11.3055 9.68963C11.5291 9.91012 11.6409 10.1788 11.6409 10.4951C11.6409 10.812 11.5291 11.0824 11.3055 11.3055C11.0824 11.5291 10.812 11.6409 10.4951 11.6409C10.1788 11.6409 9.91012 11.5291 9.68963 11.3055Z" fill="#E5E8EB"/>
</g>
<defs>
<clipPath id="clip0_127_830">
<rect width="22" height="22" fill="white"/>
</clipPath>
</defs>
</svg>
