<?xml version="1.0" encoding="UTF-8" standalone="no"?>
<!DOCTYPE svg PUBLIC "-//W3C//DTD SVG 1.1//EN" "http://www.w3.org/Graphics/SVG/1.1/DTD/svg11.dtd">
<svg width="100%" height="100%" viewBox="0 0 512 512" version="1.1" xmlns="http://www.w3.org/2000/svg" xmlns:xlink="http://www.w3.org/1999/xlink" xml:space="preserve" xmlns:serif="http://www.serif.com/" style="fill-rule:evenodd;clip-rule:evenodd;stroke-linejoin:round;stroke-miterlimit:2;">
    <g transform="matrix(1,0,0,1,-542,-1084)">
        <g id="NRC-02" serif:id="NRC 02" transform="matrix(1,0,0,1,542,1084)">
            <rect x="0" y="0" width="512" height="512" style="fill:none;"/>
            <g id="T-Short" transform="matrix(0.769219,0,0,0.769219,-180.689,2.15466)">
                <path d="M567.704,590C640.52,590.267 693.113,583.706 729.593,571.705C737.237,569.105 742.378,561.926 742.378,553.852C742.408,502.477 742.408,315.808 742.408,268.802C742.408,266.276 743.61,263.9 745.646,262.404C747.681,260.907 750.307,260.468 752.719,261.222C768.366,266.112 797.881,275.335 812.984,280.055C818.351,281.732 824.121,279.11 826.387,273.964C835.528,253.207 857.917,202.366 866.744,182.321C868.873,177.487 867.281,171.823 862.947,168.805C840.819,153.397 775.385,107.836 747.846,88.66C739.682,82.976 730.235,79.405 720.352,78.269C695.451,75.407 648.408,70 648.408,70C648.408,70 635.408,110 567.704,110C500,110 487,70 487,70C487,70 439.958,75.407 415.057,78.269C405.173,79.405 395.726,82.976 387.562,88.66C360.023,107.836 294.589,153.397 272.461,168.805C268.127,171.823 266.536,177.487 268.664,182.321C277.492,202.366 299.88,253.207 309.021,273.964C311.287,279.11 317.057,281.732 322.424,280.055C337.528,275.335 367.042,266.112 382.69,261.222C385.101,260.468 387.727,260.907 389.762,262.404C391.798,263.9 393,266.276 393,268.802C393,315.808 393,502.477 393,553.852C393,561.939 398.149,569.129 405.805,571.734C442.295,583.706 494.889,590.267 567.704,590ZM654.679,382.804L629.505,382.804C628.95,382.804 628.5,383.254 628.5,383.809L628.5,398.886C628.5,399.441 628.95,399.891 629.505,399.891L654.679,399.891L654.679,416.979L629.505,416.979C628.95,416.979 628.5,417.429 628.5,417.984L628.5,433.061C628.5,433.616 628.95,434.066 629.505,434.066L670.761,434.066C671.316,434.066 671.767,433.616 671.767,433.061L671.767,362.764C671.767,362.209 671.316,361.759 670.761,361.759L655.684,361.759C655.13,361.759 654.679,362.209 654.679,362.764L654.679,382.804ZM526.563,379.025C526.563,374.676 523.032,371.145 518.683,371.145L471.522,371.145C467.173,371.145 463.642,374.676 463.642,379.025L463.642,426.186C463.642,430.535 467.173,434.066 471.522,434.066L518.683,434.066C523.032,434.066 526.563,430.535 526.563,426.186L526.563,379.025ZM566.273,417.984C566.273,417.429 565.823,416.979 565.268,416.979L550.191,416.979C549.636,416.979 549.186,417.429 549.186,417.984L549.186,433.061C549.186,433.616 549.636,434.066 550.191,434.066L565.268,434.066C565.823,434.066 566.273,433.616 566.273,433.061L566.273,417.984ZM628.5,400.897C628.5,400.342 628.049,399.891 627.494,399.891L612.417,399.891C611.863,399.891 611.412,400.342 611.412,400.897L611.412,415.974C611.412,416.528 611.863,416.979 612.417,416.979L627.494,416.979C628.049,416.979 628.5,416.528 628.5,415.974L628.5,400.897ZM594.325,400.897C594.325,400.342 593.874,399.891 593.32,399.891L567.279,399.891C566.724,399.891 566.273,400.342 566.273,400.897L566.273,415.974C566.273,416.528 566.724,416.979 567.279,416.979L593.32,416.979C593.874,416.979 594.325,416.528 594.325,415.974L594.325,400.897ZM507.661,391.525C507.661,390.709 506.999,390.047 506.183,390.047L484.022,390.047C483.206,390.047 482.544,390.709 482.544,391.525L482.544,413.686C482.544,414.502 483.206,415.164 484.022,415.164L506.183,415.164C506.999,415.164 507.661,414.502 507.661,413.686L507.661,391.525ZM611.412,383.809C611.412,383.254 610.962,382.804 610.407,382.804L595.33,382.804C594.775,382.804 594.325,383.254 594.325,383.809L594.325,398.886C594.325,399.441 594.775,399.891 595.33,399.891L610.407,399.891C610.962,399.891 611.412,399.441 611.412,398.886L611.412,383.809ZM549.48,350.916L549.48,398.886C549.48,399.441 549.931,399.891 550.485,399.891L565.562,399.891C566.117,399.891 566.568,399.441 566.568,398.886L566.568,382.804L581.368,382.804C582.468,382.804 583.361,381.911 583.361,380.811L583.361,350.916C583.361,349.816 582.468,348.923 581.368,348.923L551.473,348.923C550.373,348.923 549.48,349.816 549.48,350.916ZM611.412,356.199C611.412,355.644 610.962,355.194 610.407,355.194L595.33,355.194C594.775,355.194 594.325,355.644 594.325,356.199L594.325,371.276C594.325,371.831 594.775,372.281 595.33,372.281L610.407,372.281C610.962,372.281 611.412,371.831 611.412,371.276L611.412,356.199ZM620.304,344.671L620.304,360.754C620.304,361.308 620.754,361.759 621.309,361.759L636.386,361.759C636.941,361.759 637.391,361.308 637.391,360.754L637.391,328.589C637.391,328.034 636.941,327.584 636.386,327.584L619.298,327.584C619.853,327.584 620.304,327.133 620.304,326.579L620.304,311.502C620.304,310.947 619.853,310.496 619.298,310.496L584.366,310.496C583.811,310.496 583.361,310.947 583.361,311.502L583.361,326.579C583.361,327.133 583.811,327.584 584.366,327.584L600.448,327.584L600.448,343.666C600.448,343.93 600.55,344.17 600.719,344.348L600.743,344.377C600.743,344.377 600.776,344.404 600.776,344.404C600.953,344.571 601.192,344.671 601.454,344.671L620.304,344.671ZM498.017,331.836L498.017,360.459C498.017,361.014 498.468,361.465 499.022,361.465L514.099,361.465C514.654,361.465 515.105,361.014 515.105,360.459L515.105,331.836L531.387,331.836C531.942,331.836 532.393,331.385 532.393,330.83L532.393,315.753C532.393,315.199 531.942,314.748 531.387,314.748L481.734,314.748C481.18,314.748 480.729,315.199 480.729,315.753L480.729,330.83C480.729,331.385 481.18,331.836 481.734,331.836L498.017,331.836ZM549.48,332.841C549.48,332.286 549.03,331.836 548.475,331.836L533.398,331.836C532.843,331.836 532.393,332.286 532.393,332.841L532.393,347.918C532.393,348.473 532.843,348.923 533.398,348.923L548.475,348.923C549.03,348.923 549.48,348.473 549.48,347.918L549.48,332.841ZM480.729,332.841C480.729,332.286 480.279,331.836 479.724,331.836L464.647,331.836C464.092,331.836 463.642,332.286 463.642,332.841L463.642,347.918C463.642,348.473 464.092,348.923 464.647,348.923L479.724,348.923C480.279,348.923 480.729,348.473 480.729,347.918L480.729,332.841ZM671.767,328.589C671.767,328.034 671.316,327.584 670.761,327.584L655.684,327.584C655.13,327.584 654.679,328.034 654.679,328.589L654.679,343.666C654.679,344.221 655.13,344.671 655.684,344.671L670.761,344.671C671.316,344.671 671.767,344.221 671.767,343.666L671.767,328.589ZM566.768,298.96C566.768,298.405 566.318,297.955 565.763,297.955L550.686,297.955C550.131,297.955 549.681,298.405 549.681,298.96L549.681,330.83C549.681,331.385 550.131,331.836 550.686,331.836L565.763,331.836C566.318,331.836 566.768,331.385 566.768,330.83L566.768,298.96ZM654.679,298.96C654.679,298.405 654.229,297.955 653.674,297.955L638.597,297.955C638.042,297.955 637.592,298.405 637.592,298.96L637.592,326.579C637.592,327.133 638.042,327.584 638.597,327.584L653.674,327.584C654.229,327.584 654.679,327.133 654.679,326.579L654.679,298.96ZM583.856,281.873C583.856,281.318 583.405,280.867 582.85,280.867L567.773,280.867C567.219,280.867 566.768,281.318 566.768,281.873L566.768,296.95C566.768,297.504 567.219,297.955 567.773,297.955L582.85,297.955C583.405,297.955 583.856,297.504 583.856,296.95L583.856,281.873ZM671.767,233.822C671.767,229.473 668.236,225.941 663.886,225.941L616.725,225.941C612.376,225.941 608.845,229.473 608.845,233.822L608.845,280.983C608.845,285.332 612.376,288.863 616.725,288.863L663.886,288.863C668.236,288.863 671.767,285.332 671.767,280.983L671.767,233.822ZM526.563,233.822C526.563,229.473 523.032,225.941 518.683,225.941L471.522,225.941C467.173,225.941 463.642,229.473 463.642,233.822L463.642,280.983C463.642,285.332 467.173,288.863 471.522,288.863L518.683,288.863C523.032,288.863 526.563,285.332 526.563,280.983L526.563,233.822ZM583.361,243.029L554.336,243.029C553.781,243.029 553.331,243.479 553.331,244.034L553.331,259.111C553.331,259.666 553.781,260.116 554.336,260.116L583.361,260.116L583.361,279.862C583.361,280.417 583.811,280.867 584.366,280.867L599.443,280.867C599.998,280.867 600.448,280.417 600.448,279.862L600.448,226.947C600.448,226.392 599.998,225.941 599.443,225.941L584.366,225.941C583.811,225.941 583.361,226.392 583.361,226.947L583.361,243.029ZM553.331,261.122C553.331,260.567 552.88,260.116 552.326,260.116L537.249,260.116C536.694,260.116 536.243,260.567 536.243,261.122L536.243,276.199C536.243,276.754 536.694,277.204 537.249,277.204L552.326,277.204C552.88,277.204 553.331,276.754 553.331,276.199L553.331,261.122ZM652.864,246.321C652.864,245.506 652.202,244.844 651.387,244.844L629.225,244.844C628.41,244.844 627.747,245.506 627.747,246.321L627.747,268.483C627.747,269.299 628.41,269.961 629.225,269.961L651.387,269.961C652.202,269.961 652.864,269.299 652.864,268.483L652.864,246.321ZM507.661,246.321C507.661,245.506 506.999,244.844 506.183,244.844L484.022,244.844C483.206,244.844 482.544,245.506 482.544,246.321L482.544,268.483C482.544,269.299 483.206,269.961 484.022,269.961L506.183,269.961C506.999,269.961 507.661,269.299 507.661,268.483L507.661,246.321ZM553.331,226.947C553.331,226.392 552.88,225.941 552.326,225.941L537.249,225.941C536.694,225.941 536.243,226.392 536.243,226.947L536.243,242.024C536.243,242.579 536.694,243.029 537.249,243.029L552.326,243.029C552.88,243.029 553.331,242.579 553.331,242.024L553.331,226.947Z" style="fill:rgb(229,232,235);"/>
            </g>
        </g>
    </g>
</svg>
