<svg width="20" height="20" viewBox="0 0 20 20" fill="none" xmlns="http://www.w3.org/2000/svg">
<path d="M2.55242 10.5067L2.6027 10.4214L5.63472 5.30182C5.67904 5.22687 5.78321 5.23462 5.81673 5.31604C6.32327 6.54131 6.76035 8.06516 6.55559 9.01385C6.46817 9.40418 6.22868 9.9328 5.95923 10.4214C5.92452 10.4925 5.8862 10.5623 5.84548 10.6295C5.82631 10.6605 5.79398 10.6786 5.75925 10.6786H2.64102C2.5572 10.6786 2.50811 10.5803 2.55242 10.5067Z" fill="#E5E8EB" fill-opacity="0.8"/>
<path d="M18.8214 12.0776V12.9442C18.8214 12.994 18.7891 13.0382 18.7421 13.0576C18.4539 13.1737 17.4674 13.5994 17.0572 14.1358C16.0104 15.5056 15.2106 17.4643 13.4227 17.4643H5.9642C3.32074 17.4643 1.17859 15.4434 1.17859 12.9498V12.8696C1.17859 12.8032 1.23592 12.7494 1.30649 12.7494H5.46435C5.54666 12.7494 5.60693 12.8212 5.59961 12.8972C5.57018 13.1516 5.62018 13.4115 5.74809 13.6478C5.99508 14.1192 6.50673 14.4136 7.05953 14.4136H9.11788V12.9028H7.08306C6.97868 12.9028 6.91694 12.7894 6.97722 12.7093C6.99926 12.6775 7.02427 12.6443 7.05072 12.607C7.24333 12.3499 7.51826 11.9504 7.79173 11.4956C7.97845 11.1888 8.15927 10.8612 8.30483 10.5322C8.33425 10.4727 8.35775 10.4119 8.38128 10.3525C8.42097 10.2474 8.46216 10.1493 8.49155 10.0512C8.52097 9.96819 8.54447 9.88112 8.568 9.79956C8.63711 9.52034 8.66651 9.22454 8.66651 8.91768C8.66651 8.79743 8.66064 8.67163 8.64888 8.55138C8.64298 8.42007 8.62535 8.28873 8.60769 8.15742C8.59593 8.04131 8.57389 7.92657 8.55037 7.80632C8.52097 7.63077 8.47979 7.45662 8.43274 7.28105L8.41657 7.21472C8.38128 7.09444 8.35188 6.97973 8.31073 6.85948C8.19456 6.4821 8.06079 6.11443 7.91963 5.77025C7.86817 5.63339 7.80936 5.50208 7.75054 5.37077C7.66382 5.1731 7.57558 4.99341 7.49473 4.82338C7.45358 4.74597 7.41829 4.67547 7.383 4.60359C7.3433 4.52204 7.30215 4.44048 7.26096 4.36309C7.23157 4.30365 7.19774 4.24835 7.17421 4.19306L6.92281 3.75626C6.88752 3.69682 6.94634 3.62632 7.01543 3.6443L8.5886 4.04515H8.59301C8.59593 4.04515 8.59742 4.04654 8.59888 4.04654L8.80618 4.10044L9.03408 4.16128L9.11788 4.18337V3.30426C9.11788 2.87989 9.47956 2.53571 9.92652 2.53571C10.15 2.53571 10.3529 2.62142 10.4984 2.76101C10.644 2.90064 10.7351 3.09139 10.7351 3.30426V4.60914L10.9028 4.65335C10.916 4.65752 10.9292 4.66303 10.941 4.67132C10.9822 4.70036 11.0409 4.74319 11.1159 4.79574C11.1747 4.83995 11.238 4.89388 11.3144 4.94917C11.4658 5.06388 11.6467 5.2118 11.8452 5.38183C11.8981 5.42467 11.9496 5.4689 11.9966 5.51314C12.2524 5.73707 12.5391 5.99969 12.8126 6.28997C12.889 6.37153 12.964 6.45446 13.0405 6.54154C13.1169 6.63001 13.1978 6.71709 13.2683 6.80419C13.361 6.92029 13.461 7.04055 13.5477 7.16634C13.5889 7.22578 13.6359 7.28659 13.6756 7.34603C13.7874 7.50498 13.8859 7.66949 13.98 7.83398C14.0197 7.91 14.0608 7.99293 14.0961 8.07449C14.2005 8.29427 14.2828 8.5182 14.3357 8.74213C14.3519 8.79051 14.3637 8.84303 14.3696 8.89004V8.9011C14.3872 8.96743 14.3931 9.03793 14.399 9.1098C14.4225 9.33927 14.4107 9.56872 14.3578 9.79956C14.3357 9.89772 14.3064 9.99031 14.2711 10.0885C14.2358 10.1825 14.2005 10.2806 14.1549 10.3732C14.0667 10.5653 13.9623 10.7575 13.8388 10.9372C13.7991 11.0035 13.7521 11.074 13.705 11.1404C13.6536 11.2109 13.6006 11.2772 13.5536 11.3422C13.4889 11.4251 13.4198 11.5122 13.3492 11.5896C13.286 11.6712 13.2213 11.7527 13.1507 11.8246C13.0522 11.9338 12.9581 12.0375 12.8596 12.137C12.8008 12.202 12.7376 12.2683 12.6729 12.3278C12.6097 12.3941 12.545 12.4535 12.4862 12.5088C12.3877 12.6014 12.3054 12.6733 12.2362 12.7328L12.0745 12.8724C12.051 12.8917 12.0201 12.9028 11.9878 12.9028H10.7351V14.4136H12.3112C12.6641 14.4136 12.9993 14.2961 13.2698 14.0805C13.3625 14.0044 13.7668 13.6755 14.2446 13.1792C14.2608 13.1626 14.2814 13.1502 14.3049 13.1447L18.6583 11.9615C18.7391 11.9393 18.8214 11.9974 18.8214 12.0776Z" fill="#E5E8EB" fill-opacity="0.8"/>
</svg>
