<?xml version="1.0" encoding="UTF-8" standalone="no"?>
<!DOCTYPE svg PUBLIC "-//W3C//DTD SVG 1.1//EN" "http://www.w3.org/Graphics/SVG/1.1/DTD/svg11.dtd">
<svg width="100%" height="100%" viewBox="0 0 512 512" version="1.1" xmlns="http://www.w3.org/2000/svg" xmlns:xlink="http://www.w3.org/1999/xlink" xml:space="preserve" xmlns:serif="http://www.serif.com/" style="fill-rule:evenodd;clip-rule:evenodd;stroke-linejoin:round;stroke-miterlimit:2;">
    <g transform="matrix(1,0,0,1,-542,0)">
        <g id="Persons-02" serif:id="Persons 02" transform="matrix(1,0,0,1,542,0)">
            <rect x="0" y="0" width="512" height="512" style="fill:none;"/>
            <g id="Award" transform="matrix(0.879017,0,0,0.879017,-249.862,-206.753)">
                <path d="M731.393,708.281C731.393,708.281 715.86,724.486 700.174,724.315C684.488,724.144 670.467,709.214 670.467,709.214C670.467,709.214 683.196,693.203 698.881,693.373C714.567,693.544 731.393,708.281 731.393,708.281ZM419.579,708.281C419.579,708.281 435.112,724.486 450.797,724.315C466.483,724.144 480.504,709.214 480.504,709.214C480.504,709.214 467.776,693.203 452.09,693.373C436.404,693.544 419.579,708.281 419.579,708.281ZM684.356,647C684.356,647 694.564,664.76 690.391,678.453C686.218,692.147 669.547,700.596 669.547,700.596C669.547,700.596 658.789,685.342 662.962,671.649C667.134,657.956 684.356,647 684.356,647ZM466.615,647C466.615,647 456.407,664.76 460.58,678.453C464.753,692.147 481.424,700.596 481.424,700.596C481.424,700.596 492.182,685.342 488.01,671.649C483.837,657.956 466.615,647 466.615,647ZM769.794,671.543C769.794,671.543 757.629,690.407 742.197,693.225C726.765,696.042 710.16,684.053 710.16,684.053C710.16,684.053 719.608,665.911 735.04,663.094C750.472,660.277 769.794,671.543 769.794,671.543ZM381.177,671.543C381.177,671.543 393.343,690.407 408.774,693.225C424.206,696.042 440.812,684.053 440.812,684.053C440.812,684.053 431.363,665.911 415.931,663.094C400.5,660.277 381.177,671.543 381.177,671.543ZM711.521,619.935C711.521,619.935 724.446,635.827 722.524,650.013C720.601,664.198 705.501,675.213 705.501,675.213C705.501,675.213 692.436,661.882 694.358,647.697C696.28,633.512 711.521,619.935 711.521,619.935ZM439.45,619.935C439.45,619.935 426.526,635.827 428.448,650.013C430.37,664.198 445.47,675.213 445.47,675.213C445.47,675.213 458.536,661.882 456.614,647.697C454.691,633.512 439.45,619.935 439.45,619.935ZM798.386,626.193C798.386,626.193 790.924,647.363 776.566,653.68C762.207,659.997 743.275,652.183 743.275,652.183C743.275,652.183 748.262,632.346 762.621,626.029C776.979,619.712 798.386,626.193 798.386,626.193ZM352.585,626.193C352.585,626.193 360.047,647.363 374.406,653.68C388.764,659.997 407.696,652.183 407.696,652.183C407.696,652.183 402.709,632.346 388.351,626.029C373.992,619.712 352.585,626.193 352.585,626.193ZM732.882,587.963C732.882,587.963 748.189,601.577 748.567,615.887C748.945,630.197 735.808,643.491 735.808,643.491C735.808,643.491 720.773,632.429 720.395,618.119C720.016,603.809 732.882,587.963 732.882,587.963ZM418.089,587.963C418.089,587.963 402.783,601.577 402.404,615.887C402.026,630.197 415.163,643.491 415.163,643.491C415.163,643.491 430.199,632.429 430.577,618.119C430.955,603.809 418.089,587.963 418.089,587.963ZM817.275,574.147C817.275,574.147 815.298,596.507 802.956,606.188C790.613,615.87 770.334,612.997 770.334,612.997C770.334,612.997 770.244,592.542 782.587,582.861C794.929,573.179 817.275,574.147 817.275,574.147ZM333.696,574.147C333.696,574.147 335.673,596.507 348.016,606.188C360.358,615.87 380.637,612.997 380.637,612.997C380.637,612.997 380.727,592.542 368.385,582.861C356.042,573.179 333.696,574.147 333.696,574.147ZM569.557,404.477C570.639,402.344 572.829,401 575.221,401C577.613,401 579.802,402.344 580.885,404.477L612.082,465.935L680.172,476.613C682.535,476.984 684.49,478.651 685.229,480.926C685.968,483.201 685.367,485.698 683.673,487.387L634.863,536.049L645.748,604.106C646.126,606.469 645.145,608.843 643.21,610.249C641.274,611.655 638.713,611.854 636.584,610.765L575.221,579.382L513.858,610.765C511.728,611.854 509.167,611.655 507.232,610.249C505.296,608.843 504.315,606.469 504.693,604.106L515.578,536.049L466.769,487.387C465.075,485.698 464.473,483.201 465.212,480.926C465.951,478.651 467.906,476.984 470.269,476.613L538.36,465.935L569.557,404.477ZM744.345,553.154C744.345,553.154 762.558,562.531 766.484,576.297C770.411,590.063 760.994,606.207 760.994,606.207C760.994,606.207 743.68,599.234 739.753,585.468C735.826,571.702 744.345,553.154 744.345,553.154ZM406.626,553.154C406.626,553.154 388.414,562.531 384.487,576.297C380.56,590.063 389.977,606.207 389.977,606.207C389.977,606.207 407.291,599.234 411.218,585.468C415.145,571.702 406.626,553.154 406.626,553.154ZM823.517,521.552C823.517,521.552 826.594,543.787 816.73,555.985C806.867,568.182 786.46,569.92 786.46,569.92C786.46,569.92 781.795,550.004 791.658,537.806C801.522,525.609 823.517,521.552 823.517,521.552ZM327.454,521.552C327.454,521.552 324.378,543.787 334.241,555.985C344.104,568.182 364.512,569.92 364.512,569.92C364.512,569.92 369.176,550.004 359.313,537.806C349.45,525.609 327.454,521.552 327.454,521.552ZM747.263,516.733C747.263,516.733 767.235,521.283 774.464,533.639C781.692,545.995 776.588,563.975 776.588,563.975C776.588,563.975 758.083,561.529 750.855,549.173C743.627,536.817 747.263,516.733 747.263,516.733ZM403.708,516.733C403.708,516.733 383.736,521.283 376.508,533.639C369.279,545.995 374.383,563.975 374.383,563.975C374.383,563.975 392.888,561.529 400.117,549.173C407.345,536.817 403.708,516.733 403.708,516.733ZM818.736,466.443C818.736,466.443 826.46,487.519 819.41,501.532C812.36,515.545 792.786,521.573 792.786,521.573C792.786,521.573 784.001,503.101 791.051,489.088C798.102,475.075 818.736,466.443 818.736,466.443ZM332.236,466.443C332.236,466.443 324.511,487.519 331.561,501.532C338.612,515.545 358.186,521.573 358.186,521.573C358.186,521.573 366.97,503.101 359.92,489.088C352.87,475.075 332.236,466.443 332.236,466.443ZM742.525,480.937C742.525,480.937 763.001,480.376 773.077,490.545C783.152,500.714 782.682,519.398 782.682,519.398C782.682,519.398 764.15,521.633 754.075,511.464C744,501.295 742.525,480.937 742.525,480.937ZM408.447,480.937C408.447,480.937 387.97,480.376 377.895,490.545C367.819,500.714 368.289,519.398 368.289,519.398C368.289,519.398 386.821,521.633 396.896,511.464C406.971,501.295 408.447,480.937 408.447,480.937ZM419.152,445.846C419.152,445.846 399.459,440.207 387.17,447.55C374.882,454.892 370.688,473.106 370.688,473.106C370.688,473.106 388.081,479.881 400.37,472.539C412.658,465.196 419.152,445.846 419.152,445.846ZM731.82,445.846C731.82,445.846 751.513,440.207 763.801,447.55C776.09,454.892 780.283,473.106 780.283,473.106C780.283,473.106 762.89,479.881 750.602,472.539C738.313,465.196 731.82,445.846 731.82,445.846ZM349.069,416C349.069,416 336.989,434.92 340.859,450.122C344.728,465.324 362.546,475.423 362.546,475.423C362.546,475.423 375.1,459.274 371.231,444.072C367.361,428.87 349.069,416 349.069,416ZM801.903,416C801.903,416 813.982,434.92 810.113,450.122C806.243,465.324 788.425,475.423 788.425,475.423C788.425,475.423 775.871,459.274 779.741,444.072C783.61,428.87 801.903,416 801.903,416ZM438.971,413.973C438.971,413.973 420.771,404.573 407.279,409.357C393.787,414.141 386.095,431.175 386.095,431.175C386.095,431.175 401.817,441.237 415.309,436.453C428.801,431.669 438.971,413.973 438.971,413.973ZM712,413.973C712,413.973 730.2,404.573 743.693,409.357C757.185,414.141 764.877,431.175 764.877,431.175C764.877,431.175 749.155,441.237 735.663,436.453C722.171,431.669 712,413.973 712,413.973ZM376.714,369C376.714,369 360.323,384.336 360.304,400.022C360.285,415.709 375.044,429.909 375.044,429.909C375.044,429.909 391.209,417.376 391.228,401.689C391.246,386.002 376.714,369 376.714,369ZM774.257,369C774.257,369 790.649,384.336 790.668,400.022C790.686,415.709 775.927,429.909 775.927,429.909C775.927,429.909 759.763,417.376 759.744,401.689C759.725,386.002 774.257,369 774.257,369ZM464.67,386.618C464.67,386.618 448.672,373.824 434.503,375.863C420.333,377.901 409.443,393.091 409.443,393.091C409.443,393.091 422.88,406.047 437.05,404.008C451.219,401.97 464.67,386.618 464.67,386.618ZM686.302,386.618C686.302,386.618 702.299,373.824 716.469,375.863C730.638,377.901 741.528,393.091 741.528,393.091C741.528,393.091 728.091,406.047 713.922,404.008C699.753,401.97 686.302,386.618 686.302,386.618ZM412.77,330.156C412.77,330.156 394.121,342.65 391.575,358.128C389.029,373.607 401.307,390 401.307,390C401.307,390 419.28,380.235 421.826,364.756C424.373,349.277 412.77,330.156 412.77,330.156ZM738.201,330.156C738.201,330.156 756.85,342.65 759.396,358.128C761.942,373.607 749.664,390 749.664,390C749.664,390 731.691,380.235 729.145,364.756C726.599,349.277 738.201,330.156 738.201,330.156ZM667.183,328.034C667.183,328.034 690.684,323.293 704.336,333.006C717.987,342.719 721.18,364.36 721.18,364.36C721.18,364.36 700.256,370.641 686.605,360.928C672.954,351.215 667.183,328.034 667.183,328.034ZM483.788,328.034C483.788,328.034 460.287,323.293 446.636,333.006C432.985,342.719 429.791,364.36 429.791,364.36C429.791,364.36 450.715,370.641 464.366,360.928C478.018,351.215 483.788,328.034 483.788,328.034Z" style="fill:rgb(229,232,235);"/>
            </g>
        </g>
    </g>
</svg>
