<svg width="38" height="38" viewBox="0 0 38 38" fill="none" xmlns="http://www.w3.org/2000/svg">
<path d="M28.1768 17.8489L29.8534 11.8332L22.23 15.9421L28.1768 17.8489Z" fill="white"/>
<mask id="path-2-inside-1_283_869" fill="white">
<path d="M27.6189 14.562C26.6659 12.5589 25.0614 10.9386 23.0678 9.96588C21.0742 8.99319 18.8096 8.72574 16.6443 9.20727C14.4789 9.68882 12.5411 10.8908 11.1477 12.6168C9.75422 14.3427 8.98765 16.4904 8.97334 18.7085C8.95902 20.9267 9.6978 23.0841 11.0689 24.8278C12.4399 26.5716 14.3621 27.7985 16.521 28.308C18.6799 28.8174 20.9478 28.5792 22.9538 27.6324C24.9597 26.6855 26.585 25.0859 27.5639 23.0954L25.7873 22.2218C25.0063 23.8102 23.7094 25.0865 22.1087 25.8421C20.508 26.5976 18.6984 26.7877 16.9757 26.3812C15.2529 25.9747 13.7192 24.9956 12.6251 23.6042C11.5311 22.2128 10.9416 20.4913 10.953 18.7213C10.9644 16.9513 11.5761 15.2376 12.688 13.8604C13.7999 12.4832 15.3462 11.524 17.074 11.1398C18.8018 10.7555 20.6089 10.9689 22.1997 11.7451C23.7904 12.5213 25.0708 13.8142 25.8313 15.4126L27.6189 14.562Z"/>
</mask>
<path d="M27.6189 14.562C26.6659 12.5589 25.0614 10.9386 23.0678 9.96588C21.0742 8.99319 18.8096 8.72574 16.6443 9.20727C14.4789 9.68882 12.5411 10.8908 11.1477 12.6168C9.75422 14.3427 8.98765 16.4904 8.97334 18.7085C8.95902 20.9267 9.6978 23.0841 11.0689 24.8278C12.4399 26.5716 14.3621 27.7985 16.521 28.308C18.6799 28.8174 20.9478 28.5792 22.9538 27.6324C24.9597 26.6855 26.585 25.0859 27.5639 23.0954L25.7873 22.2218C25.0063 23.8102 23.7094 25.0865 22.1087 25.8421C20.508 26.5976 18.6984 26.7877 16.9757 26.3812C15.2529 25.9747 13.7192 24.9956 12.6251 23.6042C11.5311 22.2128 10.9416 20.4913 10.953 18.7213C10.9644 16.9513 11.5761 15.2376 12.688 13.8604C13.7999 12.4832 15.3462 11.524 17.074 11.1398C18.8018 10.7555 20.6089 10.9689 22.1997 11.7451C23.7904 12.5213 25.0708 13.8142 25.8313 15.4126L27.6189 14.562Z" stroke="white" stroke-width="20" mask="url(#path-2-inside-1_283_869)"/>
</svg>
