<svg width="22" height="21" viewBox="0 0 22 21" fill="none" xmlns="http://www.w3.org/2000/svg">
<path d="M20.1773 9.84968L21.8539 3.83398L14.2305 7.94288L20.1773 9.84968Z" fill="white"/>
<mask id="mask0_1827_251" style="mask-type:alpha" maskUnits="userSpaceOnUse" x="0" y="0" width="20" height="21">
<path d="M19.6184 6.56105C18.6654 4.55795 17.0609 2.93765 15.0673 1.96493C13.0737 0.992238 10.8091 0.724787 8.64382 1.20632C6.47842 1.68787 4.54062 2.88985 3.14722 4.61585C1.75374 6.34175 0.987171 8.48945 0.972861 10.7075C0.958541 12.9257 1.69732 15.0831 3.06842 16.8268C4.43942 18.5706 6.36162 19.7975 8.52052 20.307C10.6794 20.8164 12.9473 20.5782 14.9533 19.6314C16.9592 18.6845 18.5845 17.0849 19.5634 15.0944L17.7868 14.2208C17.0058 15.8092 15.7089 17.0855 14.1082 17.8411C12.5075 18.5966 10.6979 18.7867 8.97522 18.3802C7.25242 17.9737 5.71872 16.9946 4.62462 15.6032C3.53062 14.2118 2.94112 12.4903 2.95252 10.7203C2.96392 8.95035 3.57562 7.23665 4.68752 5.85945C5.79942 4.48225 7.34572 3.52305 9.07352 3.13885C10.8013 2.75455 12.6084 2.96795 14.1992 3.74415C15.7899 4.52035 17.0703 5.81325 17.8308 7.41165L19.6184 6.56105Z" fill="white"/>
</mask>
<g mask="url(#mask0_1827_251)">
<path d="M19.6184 6.56105C18.6654 4.55795 17.0609 2.93765 15.0673 1.96493C13.0737 0.992238 10.8091 0.724787 8.64382 1.20632C6.47842 1.68787 4.54062 2.88985 3.14722 4.61585C1.75374 6.34175 0.987171 8.48945 0.972861 10.7075C0.958541 12.9257 1.69732 15.0831 3.06842 16.8268C4.43942 18.5706 6.36162 19.7975 8.52052 20.307C10.6794 20.8164 12.9473 20.5782 14.9533 19.6314C16.9592 18.6845 18.5845 17.0849 19.5634 15.0944L17.7868 14.2208C17.0058 15.8092 15.7089 17.0855 14.1082 17.8411C12.5075 18.5966 10.6979 18.7867 8.97522 18.3802C7.25242 17.9737 5.71872 16.9946 4.62462 15.6032C3.53062 14.2118 2.94112 12.4903 2.95252 10.7203C2.96392 8.95035 3.57562 7.23665 4.68752 5.85945C5.79942 4.48225 7.34572 3.52305 9.07352 3.13885C10.8013 2.75455 12.6084 2.96795 14.1992 3.74415C15.7899 4.52035 17.0703 5.81325 17.8308 7.41165L19.6184 6.56105Z" stroke="white" stroke-width="20"/>
</g>
</svg>
