<svg width="22" height="22" viewBox="0 0 22 22" fill="none" xmlns="http://www.w3.org/2000/svg">
<g clip-path="url(#clip0_1_61)">
<path d="M13.6651 1.03427C13.3071 1.03427 13.0168 1.32449 13.0168 1.68251V7.5541H21.8003C20.9696 3.82813 17.6377 1.03427 13.6651 1.03427Z" fill="white"/>
<path d="M6.74937 15.4186C5.22004 15.4186 3.9758 16.6628 3.9758 18.1922C3.9758 19.7215 5.21997 20.9657 6.74937 20.9657C8.27871 20.9657 9.52294 19.7215 9.52294 18.1922C9.52294 16.6628 8.27871 15.4186 6.74937 15.4186ZM6.75754 19.7274C5.86971 19.7274 5.14737 19.0051 5.14737 18.1173C5.14737 17.7104 5.29925 17.3387 5.54896 17.055C6.34415 17.7019 7.30219 18.156 8.35137 18.3446C8.24052 19.1252 7.56817 19.7274 6.75754 19.7274Z" fill="white"/>
<path d="M21.975 8.72087H13.0169H11.7548H4.55494V7.86785C4.55494 5.71374 2.80242 3.96115 0.648243 3.96115C0.290218 3.96115 0 4.25137 0 4.60939C0 4.96742 0.290218 5.25764 0.648243 5.25764C2.08754 5.25764 3.25846 6.42856 3.25846 7.86785V9.36912V12.2509C3.25846 13.5041 3.63398 14.6707 4.27672 15.6464C4.91666 15.0246 5.78881 14.6407 6.74937 14.6407C8.70765 14.6407 10.3008 16.2339 10.3008 18.1922C10.3008 18.2763 10.2968 18.3595 10.291 18.4422H13.662C13.6562 18.3595 13.6522 18.2763 13.6522 18.1922C13.6522 16.2339 15.2454 14.6407 17.2037 14.6407C18.5448 14.6407 19.7144 15.3881 20.3186 16.4881C21.3606 15.3798 21.9999 13.8886 21.9999 12.2509V9.36912H22C22 9.15098 21.9915 8.93486 21.975 8.72087Z" fill="white"/>
<path d="M17.2037 15.4186C15.6743 15.4186 14.4301 16.6628 14.4301 18.1922C14.4301 19.7215 15.6743 20.9657 17.2037 20.9657C18.733 20.9657 19.9772 19.7215 19.9772 18.1922C19.9772 16.6628 18.733 15.4186 17.2037 15.4186ZM17.1872 19.7274C16.4107 19.7274 15.7607 19.1748 15.61 18.4422H15.8088C16.8697 18.4422 17.869 18.1738 18.7427 17.7016C18.7782 17.8343 18.7974 17.9735 18.7974 18.1172C18.7974 19.005 18.075 19.7274 17.1872 19.7274Z" fill="white"/>
</g>
<defs>
<clipPath id="clip0_1_61">
<rect width="22" height="22" fill="white"/>
</clipPath>
</defs>
</svg>
