<svg width="37" height="37" viewBox="0 0 37 37" fill="none" xmlns="http://www.w3.org/2000/svg">
<path d="M1.564 21.295L3.98885 21.3101C4.35145 23.176 5.06909 24.9889 6.15687 26.6357L4.43455 28.3429C3.81511 28.9548 3.81511 29.9444 4.41944 30.5638L6.27774 32.4448C6.88962 33.0642 7.8792 33.0642 8.49864 32.4599L10.221 30.7527C11.8526 31.8556 13.6581 32.6034 15.5239 32.9811L15.5088 35.406C15.5013 36.2747 16.2038 36.9772 17.0725 36.9848L19.7164 36.9999C20.5852 37.0075 21.2877 36.3049 21.2952 35.4362L21.3103 33.0114C23.1762 32.6488 24.9892 31.9311 26.636 30.8433L28.3432 32.5657C28.9551 33.1851 29.9446 33.1851 30.5641 32.5808L32.445 30.7225C33.0645 30.1106 33.0645 29.121 32.4602 28.5016L30.7529 26.7792C31.8558 25.1476 32.6037 23.3421 32.9814 21.4763L35.4062 21.4914C36.275 21.499 36.9775 20.7964 36.985 19.9277L37.0002 17.2838C37.0077 16.4151 36.3052 15.7125 35.4365 15.705L33.0116 15.6899C32.649 13.824 31.9314 12.011 30.8436 10.3642L32.5659 8.65703C33.1853 8.04515 33.1853 7.05556 32.581 6.43613L30.7227 4.55517C30.1108 3.93573 29.1213 3.93573 28.5018 4.54006L26.7795 6.24728C25.1478 5.14438 23.3424 4.39653 21.4765 4.01883L21.4916 1.59397C21.4992 0.725251 20.7967 0.0227226 19.9279 0.0151685L17.284 6.0354e-05C16.4153 -0.00749372 15.7128 0.695035 15.7052 1.56375L15.6826 3.98861C13.8091 4.35121 11.9962 5.06884 10.3569 6.15663L8.64972 4.4343C8.03784 3.81487 7.04825 3.81487 6.42882 4.41919L4.55541 6.27749C3.93598 6.88937 3.93598 7.87896 4.5403 8.49839L6.24752 10.2207C5.14463 11.8524 4.39677 13.6578 4.01907 15.5237L1.59421 15.5086C0.725496 15.501 0.0229667 16.2035 0.0154126 17.0723L0.000304495 19.7162C-0.00724958 20.5774 0.695279 21.2874 1.564 21.295ZM13.5448 13.4916C16.3095 10.7571 20.7589 10.7797 23.4935 13.5445C26.228 16.3093 26.2054 20.7587 23.4406 23.4932C20.6758 26.2278 16.2265 26.2051 13.4919 23.4403C10.7573 20.6756 10.78 16.2262 13.5448 13.4916Z" fill="white"/>
</svg>
