<svg width="28" height="30" viewBox="0 0 28 30" fill="none" xmlns="http://www.w3.org/2000/svg">
<path d="M23.2415 20.7441C22.0648 20.7441 21.0116 21.1831 20.2091 21.8752L9.15875 15.7638C9.2385 15.4251 9.30021 15.084 9.30021 14.7318C9.30021 14.3796 9.23721 14.0397 9.15875 13.6998L20.0844 7.64587C20.9177 8.37954 22.0197 8.83804 23.2415 8.83804C25.8172 8.83804 27.8928 6.86817 27.8928 4.41899C27.8928 1.97474 25.8159 0 23.2415 0C20.6708 0 18.594 1.97474 18.594 4.41782C18.594 4.77485 18.657 5.10991 18.7354 5.44984L7.80974 11.5086C6.97514 10.7713 5.87438 10.314 4.65137 10.314C2.07559 10.314 0 12.2875 0 14.7318C0 17.1761 2.07559 19.1509 4.65137 19.1509C5.87303 19.1509 6.97514 18.6923 7.80845 17.9587L18.8395 24.0835C18.7636 24.3953 18.716 24.7206 18.716 25.0446C18.716 27.4168 20.7491 29.3463 23.2401 29.3463C25.7336 29.3463 27.768 27.418 27.768 25.0446C27.768 22.6712 25.735 20.7441 23.2415 20.7441Z" fill="white"/>
</svg>
