<svg width="11" height="12" viewBox="0 0 11 12" fill="none" xmlns="http://www.w3.org/2000/svg">
<path d="M7.85753 8.94498C8.16953 8.66198 8.57903 8.48249 9.03652 8.48249C10.006 8.48249 10.7965 9.27049 10.7965 10.241C10.7965 11.2115 10.0055 12 9.03599 12C8.06748 12 7.27699 11.211 7.27699 10.241C7.27699 10.1085 7.2955 9.97549 7.325 9.84799L3.03601 7.34348C2.71201 7.64346 2.28349 7.83097 1.8085 7.83097C0.807011 7.83097 0 7.02346 0 6.02398C0 5.0245 0.807011 4.21749 1.8085 4.21749C2.28402 4.21749 2.71201 4.4045 3.03651 4.70599L7.28453 2.22849C7.25402 2.08949 7.22953 1.95248 7.22953 1.80649C7.22953 0.80749 8.03702 0 9.03652 0C10.0375 0 10.845 0.80749 10.845 1.80697C10.845 2.80846 10.038 3.61396 9.03652 3.61396C8.5615 3.61396 8.13301 3.42648 7.80901 3.12647L3.56102 5.60198C3.59152 5.74098 3.61602 5.87998 3.61602 6.02398C3.61602 6.16798 3.59203 6.30749 3.56102 6.44598L7.85753 8.94498Z" fill="#E5E8EB"/>
</svg>
