<svg width="22" height="22" viewBox="0 0 22 22" fill="none" xmlns="http://www.w3.org/2000/svg">
<g clip-path="url(#clip0_1_40)">
<path d="M11 0C4.9346 0 0 4.9346 0 11C0 17.0654 4.9346 22 11 22C17.0654 22 22 17.0654 22 11C22 4.9346 17.0654 0 11 0ZM11 20C6.0374 20 2 15.9626 2 11C2 6.0374 6.0374 2 11 2C15.9626 2 20 6.0374 20 11C20 15.9626 15.9626 20 11 20Z" fill="white"/>
<path d="M13.6871 13.687C12.2053 15.1686 9.79466 15.1687 8.313 13.6871C7.92253 13.2965 7.28933 13.2965 6.8988 13.6871C6.50826 14.0776 6.50826 14.7107 6.8988 15.1013C8.02966 16.2321 9.51453 16.7973 11.0001 16.7973C12.4851 16.7973 13.9707 16.2319 15.1013 15.1013C15.4919 14.7108 15.4919 14.0776 15.1013 13.6871C14.7107 13.2965 14.0775 13.2965 13.6871 13.687Z" fill="white"/>
<path d="M7.67599 9.80934C7.92466 9.56134 8.06666 9.21734 8.06666 8.86667C8.06666 8.51601 7.92466 8.17201 7.67599 7.92401C7.42799 7.67601 7.08399 7.53334 6.73333 7.53334C6.38193 7.53334 6.03866 7.67601 5.79059 7.92401C5.54199 8.17201 5.39999 8.51601 5.39999 8.86667C5.39999 9.21734 5.54199 9.56134 5.79059 9.80934C6.03866 10.058 6.38266 10.2 6.73333 10.2C7.08399 10.2 7.42799 10.058 7.67599 9.80934Z" fill="white"/>
<path d="M15.2667 7.53334C14.916 7.53334 14.572 7.67601 14.3239 7.92401C14.076 8.17201 13.9333 8.51534 13.9333 8.86667C13.9333 9.21801 14.076 9.56134 14.3239 9.80934C14.572 10.058 14.916 10.2 15.2667 10.2C15.6173 10.2 15.9613 10.058 16.2093 9.80934C16.4573 9.56134 16.6 9.21801 16.6 8.86667C16.6 8.51601 16.4573 8.17201 16.2093 7.92401C15.9613 7.67601 15.6173 7.53334 15.2667 7.53334Z" fill="white"/>
</g>
<defs>
<clipPath id="clip0_1_40">
<rect width="22" height="22" fill="white"/>
</clipPath>
</defs>
</svg>
