<svg width="12" height="12" viewBox="0 0 12 12" fill="none" xmlns="http://www.w3.org/2000/svg">
<g clip-path="url(#clip0_160_786)">
<path d="M4.85 0.15C4.95 0.25 5 0.35 5 0.5V11.5C5 11.75 4.75 12 4.5 12H3.5C3.25 12 3 11.75 3 11.5V4.75C3 4.5 2.7 4.4 2.55 4.55L1.55 5.55C1.45 5.65 1.35 5.7 1.2 5.7C1.1 5.7 0.95 5.65 0.85 5.55L0.15 4.85C0.05 4.75 0 4.65 0 4.5C0 4.35 0.05 4.25 0.15 4.15L4.15 0.15C4.25 0.05 4.35 0 4.5 0C4.65 0 4.75 0.05 4.85 0.15Z" fill="#E5E8EB" fill-opacity="0.8"/>
<path d="M11.85 7.15C11.95 7.25 12 7.35 12 7.5C12 7.65 11.95 7.75 11.85 7.85L7.85 11.85C7.75 11.95 7.65 12 7.5 12C7.4 12 7.25 11.95 7.15 11.85C7.05 11.75 7 11.65 7 11.5V0.5C7 0.25 7.25 0 7.5 0H8.5C8.75 0 9 0.25 9 0.5V7.25C9 7.5 9.3 7.6 9.45 7.45L10.45 6.45C10.55 6.35 10.65 6.3 10.8 6.3C10.9 6.3 11.05 6.35 11.15 6.45L11.85 7.15Z" fill="#E5E8EB" fill-opacity="0.8"/>
</g>
<defs>
<clipPath id="clip0_160_786">
<rect width="12" height="12" fill="white"/>
</clipPath>
</defs>
</svg>
