<svg width="22" height="22" viewBox="0 0 22 22" fill="none" xmlns="http://www.w3.org/2000/svg">
<g clip-path="url(#clip0_1813_269)">
<path d="M21.9806 8.49679C21.9342 8.35424 21.8109 8.25027 21.6624 8.22862L14.5387 7.19334L11.3529 0.738291C11.2868 0.603614 11.1498 0.518555 11.0001 0.518555C10.8505 0.518555 10.713 0.603614 10.6473 0.738291L7.4611 7.19373L0.337394 8.22901C0.188934 8.25067 0.0660711 8.35424 0.0192098 8.49718C-0.0268639 8.63934 0.0113339 8.79607 0.118839 8.90043L5.27398 13.9252L4.05676 21.0206C4.03156 21.1682 4.0922 21.3175 4.2131 21.4057C4.33478 21.4947 4.49584 21.5061 4.62776 21.4356L11.0001 18.086L17.3717 21.4356C17.4292 21.4659 17.4926 21.4809 17.5552 21.4809C17.6367 21.4809 17.7178 21.4557 17.7867 21.4057C17.908 21.3175 17.9687 21.1682 17.9431 21.0206L16.7262 13.9256L21.8814 8.90043C21.9885 8.79528 22.0271 8.63895 21.9806 8.49679Z" fill="white"/>
</g>
<defs>
<clipPath id="clip0_1813_269">
<rect width="22" height="22" fill="white"/>
</clipPath>
</defs>
</svg>
