<svg width="110" height="110" viewBox="0 0 110 110" fill="none" xmlns="http://www.w3.org/2000/svg">
<g clip-path="url(#clip0_311_1833)">
<path d="M106.29 39.1694L73.4944 34.4811L58.9786 4.72837C57.1754 1.25722 52.2167 1.97849 51.022 4.72837L36.5063 34.4811L3.68811 39.1694C-0.0084487 39.3948 -1.18053 43.8803 1.34395 46.6527L25.0109 69.8463L19.3759 102.417C18.7223 106.429 23.1401 108.683 25.7097 107.105L54.9891 91.6425L84.2685 106.88C87.3339 108.457 90.9854 106.248 90.6022 102.439L84.9672 69.8463L108.634 46.6527C111.497 43.6098 109.446 39.5526 106.29 39.1694ZM77.236 64.9326C76.2893 66.1047 75.8385 67.5022 76.0639 68.9222L80.5043 95.1587L57.0853 82.7392C55.5751 82.1081 54.1551 82.1081 52.8703 82.7392L29.4513 95.1587L33.8917 68.9222C34.1171 67.2768 33.6663 65.8793 32.7196 64.9326L13.7635 46.4273L40 42.6857C41.3975 42.4603 42.5695 41.739 43.2908 40.3415L55.0116 16.6746L66.7324 40.3415C67.4311 41.5136 68.6032 42.4603 70.0232 42.6857L96.2147 46.4273L77.236 64.9326Z" fill="white"/>
</g>
<defs>
<clipPath id="clip0_311_1833">
<rect width="110" height="110" fill="white"/>
</clipPath>
</defs>
</svg>
