<svg width="15" height="14" viewBox="0 0 15 14" fill="none" xmlns="http://www.w3.org/2000/svg">
<path d="M2.87405 0.0437722C2.8221 0.0738502 2.16038 0.716428 1.40569 1.47385C0.199833 2.68244 0.0330365 2.86291 0.0166302 2.95041C-0.0298541 3.20471 -0.0818073 3.14455 1.40569 4.63479C2.21507 5.44416 2.8221 6.03479 2.88499 6.0676C3.0928 6.17424 3.34983 6.07854 3.45101 5.85979C3.49749 5.76135 3.50296 5.67112 3.50296 5.05588V4.36682L8.57796 4.36682C14.2299 4.36682 13.7623 4.38322 13.9155 4.18088L13.9893 4.08518V3.05158C13.9893 2.0508 13.9866 2.01799 13.9319 1.94416C13.9018 1.90315 13.8416 1.84299 13.8006 1.81291L13.7268 1.75549L8.61351 1.74729L3.50296 1.74182L3.50022 1.05002C3.50022 0.574241 3.48929 0.330881 3.46468 0.267991C3.38538 0.0465064 3.07913 -0.0683374 2.87405 0.0437722Z" fill="white"/>
<path d="M10.8092 7.01369C10.6971 7.0465 10.5686 7.17502 10.5357 7.28713C10.5139 7.35822 10.5029 7.62619 10.5029 8.06916V8.74182L5.39238 8.74729L0.279102 8.75549L0.205273 8.81291C0.164258 8.84299 0.104102 8.90315 0.0740234 8.94416C0.0193359 9.01799 0.0166016 9.0508 0.0166016 10.0516L0.0166016 11.0852L0.0904297 11.1809C0.243555 11.3832 -0.224023 11.3668 5.42793 11.3668L10.5029 11.3668V12.0559C10.5029 12.6711 10.5084 12.7613 10.5549 12.8598C10.6561 13.0785 10.9131 13.1742 11.1209 13.0676C11.1838 13.0348 11.7908 12.4442 12.6002 11.6348C14.0877 10.1446 14.0357 10.2047 13.9893 9.95041C13.9729 9.86291 13.8061 9.68244 12.5865 8.46291C11.8236 7.69729 11.1619 7.05471 11.1154 7.03283C11.0252 6.99182 10.9186 6.98361 10.8092 7.01369Z" fill="white"/>
</svg>
