<svg width="176" height="176" viewBox="0 0 176 176" fill="none" xmlns="http://www.w3.org/2000/svg">
<path d="M80 8V72C80.0006 73.0507 79.7941 74.0913 79.3923 75.0622C78.9904 76.0331 78.4012 76.9152 77.6582 77.6582C76.9152 78.4012 76.0331 78.9904 75.0622 79.3923C74.0913 79.7941 73.0507 80.0006 72 80H8C6.94926 80.0006 5.9087 79.7941 4.93782 79.3923C3.96694 78.9904 3.08478 78.4012 2.34179 77.6582C1.59881 76.9152 1.00956 76.0331 0.607732 75.0622C0.205909 74.0913 -0.000604686 73.0507 1.3299e-06 72V8C-0.000604686 6.94926 0.205909 5.9087 0.607732 4.93782C1.00956 3.96694 1.59881 3.08478 2.34179 2.34179C3.08478 1.59881 3.96694 1.00956 4.93782 0.607732C5.9087 0.205909 6.94926 -0.000604686 8 1.3299e-06H72C73.0507 -0.00060337 74.0913 0.205909 75.0622 0.607732C76.0331 1.00956 76.9152 1.59881 77.6582 2.3418C78.4012 3.08479 78.9904 3.96694 79.3923 4.93782C79.7941 5.9087 80.0006 6.94926 80 8ZM168 1.3299e-06H104C102.949 -0.000604686 101.909 0.205909 100.938 0.607732C99.9669 1.00956 99.0848 1.59881 98.3418 2.34179C97.5988 3.08478 97.0096 3.96694 96.6077 4.93782C96.2059 5.9087 95.9994 6.94926 96 8V72C95.9994 73.0507 96.2059 74.0913 96.6077 75.0622C97.0096 76.0331 97.5988 76.9152 98.3418 77.6582C99.0848 78.4012 99.9669 78.9904 100.938 79.3923C101.909 79.7941 102.949 80.0006 104 80H168C169.051 80.0006 170.091 79.7941 171.062 79.3923C172.033 78.9904 172.915 78.4012 173.658 77.6582C174.401 76.9152 174.99 76.0331 175.392 75.0622C175.794 74.0913 176.001 73.0507 176 72V8C176.001 6.94926 175.794 5.9087 175.392 4.93782C174.99 3.96694 174.401 3.08479 173.658 2.3418C172.915 1.59881 172.033 1.00956 171.062 0.607732C170.091 0.205909 169.051 -0.00060337 168 1.3299e-06V1.3299e-06ZM72 96H8C6.94926 95.9994 5.9087 96.2059 4.93782 96.6077C3.96694 97.0096 3.08478 97.5988 2.34179 98.3418C1.59881 99.0848 1.00956 99.9669 0.607732 100.938C0.205909 101.909 -0.000604686 102.949 1.3299e-06 104V168C-0.000604686 169.051 0.205909 170.091 0.607732 171.062C1.00956 172.033 1.59881 172.915 2.34179 173.658C3.08478 174.401 3.96694 174.99 4.93782 175.392C5.9087 175.794 6.94926 176.001 8 176H72C73.0507 176.001 74.0913 175.794 75.0622 175.392C76.0331 174.99 76.9152 174.401 77.6582 173.658C78.4012 172.915 78.9904 172.033 79.3923 171.062C79.7941 170.091 80.0006 169.051 80 168V104C80.0006 102.949 79.7941 101.909 79.3923 100.938C78.9904 99.9669 78.4012 99.0848 77.6582 98.3418C76.9152 97.5988 76.0331 97.0096 75.0622 96.6077C74.0913 96.2059 73.0507 95.9994 72 96V96ZM168 96H104C102.949 95.9994 101.909 96.2059 100.938 96.6077C99.9669 97.0096 99.0848 97.5988 98.3418 98.3418C97.5988 99.0848 97.0096 99.9669 96.6077 100.938C96.2059 101.909 95.9994 102.949 96 104V168C95.9994 169.051 96.2059 170.091 96.6077 171.062C97.0096 172.033 97.5988 172.915 98.3418 173.658C99.0848 174.401 99.9669 174.99 100.938 175.392C101.909 175.794 102.949 176.001 104 176H168C169.051 176.001 170.091 175.794 171.062 175.392C172.033 174.99 172.915 174.401 173.658 173.658C174.401 172.915 174.99 172.033 175.392 171.062C175.794 170.091 176.001 169.051 176 168V104C176.001 102.949 175.794 101.909 175.392 100.938C174.99 99.9669 174.401 99.0848 173.658 98.3418C172.915 97.5988 172.033 97.0096 171.062 96.6077C170.091 96.2059 169.051 95.9994 168 96V96Z" fill="white"/>
</svg>
