<svg width="174" height="174" viewBox="0 0 174 174" fill="none" xmlns="http://www.w3.org/2000/svg">
<path d="M48.5968 1.74561H6.44481C3.31201 1.74561 0.76001 4.28001 0.76001 7.43041V49.6352C0.76001 52.768 3.31201 55.32 6.44481 55.32H48.5968C51.7472 55.32 54.2816 52.7856 54.2816 49.6352V7.43041C54.2816 4.28001 51.7472 1.74561 48.5968 1.74561Z" fill="white"/>
<path d="M48.5968 59.7197H6.44481C3.31201 59.7197 0.76001 62.2717 0.76001 65.4045V107.609C0.76001 110.742 3.31201 113.294 6.44481 113.294H48.5968C51.7472 113.294 54.2816 110.76 54.2816 107.609V65.4045C54.2816 62.2717 51.7472 59.7197 48.5968 59.7197Z" fill="white"/>
<path d="M48.5968 119.665H6.44481C3.31201 119.665 0.76001 122.2 0.76001 125.35V167.555C0.76001 170.688 3.31201 173.24 6.44481 173.24H48.5968C51.7472 173.24 54.2816 170.705 54.2816 167.555V125.35C54.2816 122.2 51.7472 119.665 48.5968 119.665Z" fill="white"/>
<path d="M108.067 0.759766H65.9153C62.7825 0.759766 60.2305 3.29417 60.2305 6.44457V48.6494C60.2305 51.7822 62.7825 54.3342 65.9153 54.3342H108.067C111.2 54.3342 113.752 51.7998 113.752 48.6494V6.44457C113.752 3.31177 111.218 0.759766 108.067 0.759766Z" fill="white"/>
<path d="M108.067 58.7344H65.9153C62.7825 58.7344 60.2305 61.2864 60.2305 64.4192V106.624C60.2305 109.757 62.7825 112.309 65.9153 112.309H108.067C111.2 112.309 113.752 109.774 113.752 106.624V64.4192C113.752 61.2864 111.218 58.7344 108.067 58.7344Z" fill="white"/>
<path d="M108.067 118.68H65.9153C62.7825 118.68 60.2305 121.214 60.2305 124.364V166.569C60.2305 169.72 62.7825 172.254 65.9153 172.254H108.067C111.2 172.254 113.752 169.72 113.752 166.569V124.364C113.752 121.232 111.218 118.68 108.067 118.68Z" fill="white"/>
<path d="M167.555 0.777344H125.403C122.271 0.777344 119.719 3.32934 119.719 6.46214V48.6669C119.719 51.8173 122.271 54.3517 125.403 54.3517H167.555C170.688 54.3517 173.24 51.8173 173.24 48.6669V6.46214C173.24 3.31174 170.688 0.777344 167.555 0.777344Z" fill="white"/>
<path d="M167.555 58.752H125.403C122.271 58.752 119.719 61.2864 119.719 64.4368V106.642C119.719 109.774 122.271 112.326 125.403 112.326H167.555C170.688 112.326 173.24 109.792 173.24 106.642V64.4368C173.24 61.2864 170.688 58.752 167.555 58.752Z" fill="white"/>
<path d="M167.555 118.68H125.403C122.271 118.68 119.719 121.214 119.719 124.364V166.569C119.719 169.702 122.271 172.254 125.403 172.254H167.555C170.688 172.254 173.24 169.72 173.24 166.569V124.364C173.24 121.232 170.688 118.68 167.555 118.68Z" fill="white"/>
</svg>
