<?xml version="1.0" encoding="UTF-8" standalone="no"?>
<!DOCTYPE svg PUBLIC "-//W3C//DTD SVG 1.1//EN" "http://www.w3.org/Graphics/SVG/1.1/DTD/svg11.dtd">
<svg width="100%" height="100%" viewBox="0 0 512 512" version="1.1" xmlns="http://www.w3.org/2000/svg" xmlns:xlink="http://www.w3.org/1999/xlink" xml:space="preserve" xmlns:serif="http://www.serif.com/" style="fill-rule:evenodd;clip-rule:evenodd;stroke-linejoin:round;stroke-miterlimit:2;">
    <g id="Wallet" transform="matrix(1.08955,0,0,1.08955,27.9407,-23.0753)">
        <path d="M419.784,378.579L279.155,378.579C243.708,378.579 214.929,349.8 214.929,314.352L214.929,197.652C214.929,162.356 243.585,133.7 278.882,133.7L419.784,133.7L419.784,85.788C419.784,64.748 402.702,47.666 381.662,47.666L35.15,47.666C14.11,47.666 -2.972,64.748 -2.972,85.788L-2.972,426.49C-2.972,447.53 14.11,464.612 35.15,464.612L381.662,464.612C402.702,464.612 419.784,447.53 419.784,426.49L419.784,378.579ZM419.886,201.735C419.886,194.256 413.814,188.185 406.336,188.185L282.744,188.185C275.265,188.185 269.194,194.256 269.194,201.735L269.194,310.543C269.194,318.022 275.265,324.093 282.744,324.093L406.336,324.093C413.814,324.093 419.886,318.022 419.886,310.543L419.886,201.735ZM354.24,251.783C354.24,237.914 342.98,226.655 329.112,226.655L319.757,226.655C305.888,226.655 294.629,237.914 294.629,251.783L294.629,260.496C294.629,274.364 305.888,285.623 319.757,285.623L329.112,285.623C342.98,285.623 354.24,274.364 354.24,260.496L354.24,251.783Z" style="fill:rgb(229,232,235);"/>
    </g>
</svg>
