<svg width="24" height="21" viewBox="0 0 24 21" fill="none" xmlns="http://www.w3.org/2000/svg">
<rect x="11.5" y="7.5" width="12" height="8" rx="1.5" stroke="white"/>
<rect x="11.5" y="7.5" width="12" height="8" rx="1.5" stroke="white"/>
<rect x="0.75" y="3.64551" width="20.5" height="16.5" rx="1.25" stroke="white" stroke-width="1.5"/>
<rect x="0.75" y="3.64551" width="20.5" height="16.5" rx="1.25" stroke="white" stroke-width="1.5"/>
<path d="M0.5 0.999999C0.5 0.723857 0.723857 0.5 1 0.5H16C16.2761 0.5 16.5 0.723858 16.5 1V3.5H1.70887C1.50223 3.5 1.29782 3.5427 1.10845 3.62541L1.30859 4.08361L1.10845 3.62541L0.5 3.89118V0.999999Z" stroke="white"/>
<path d="M0.5 0.999999C0.5 0.723857 0.723857 0.5 1 0.5H16C16.2761 0.5 16.5 0.723858 16.5 1V3.5H1.70887C1.50223 3.5 1.29782 3.5427 1.10845 3.62541L1.30859 4.08361L1.10845 3.62541L0.5 3.89118V0.999999Z" stroke="white"/>
<circle cx="15.5" cy="11.5" r="1.5" fill="white"/>
</svg>
