<?xml version="1.0" encoding="UTF-8" standalone="no"?>
<!DOCTYPE svg PUBLIC "-//W3C//DTD SVG 1.1//EN" "http://www.w3.org/Graphics/SVG/1.1/DTD/svg11.dtd">
<svg width="100%" height="100%" viewBox="0 0 512 512" version="1.1" xmlns="http://www.w3.org/2000/svg" xmlns:xlink="http://www.w3.org/1999/xlink" xml:space="preserve" xmlns:serif="http://www.serif.com/" style="fill-rule:evenodd;clip-rule:evenodd;stroke-linejoin:round;stroke-miterlimit:2;">
    <g transform="matrix(1,0,0,1,-2168,-542)">
        <g id="Watch" transform="matrix(1,0,0,1,2168,542)">
            <rect x="0" y="0" width="512" height="512" style="fill:none;"/>
            <g id="Watch1" serif:id="Watch" transform="matrix(0.315311,0,0,0.315311,-29.2402,-60.3361)">
                <path d="M1403.65,1003.25C1403.65,1130.22 1360.4,1247.16 1287.85,1340.12C1259.96,1375.87 1240.13,1417.22 1229.71,1461.34C1214.42,1526.18 1192.8,1617.79 1180.04,1671.87C1173.83,1698.22 1150.31,1716.83 1123.24,1716.83C1007.07,1716.83 703.74,1716.83 587.565,1716.83C560.496,1716.83 536.98,1698.22 530.764,1671.87C518.002,1617.79 496.388,1526.18 481.09,1461.34C470.679,1417.22 450.847,1375.87 422.955,1340.12C350.406,1247.16 307.153,1130.22 307.153,1003.25C307.153,876.286 350.406,759.343 422.954,666.379C450.847,630.638 470.679,589.287 481.09,545.161C496.388,480.322 518.002,388.716 530.764,334.629C536.98,308.283 560.496,289.67 587.565,289.67C703.74,289.67 1007.07,289.67 1123.24,289.67C1150.31,289.67 1173.83,308.283 1180.04,334.629C1192.8,388.716 1214.42,480.322 1229.71,545.162C1240.13,589.287 1259.96,630.638 1287.85,666.379C1360.4,759.343 1403.65,876.286 1403.65,1003.25ZM855.403,540.293C1110.92,540.293 1318.36,747.737 1318.36,1003.25C1318.36,1258.77 1110.92,1466.21 855.403,1466.21C599.889,1466.21 392.444,1258.77 392.444,1003.25C392.444,747.737 599.889,540.293 855.403,540.293ZM831.551,1396.39C831.551,1409.56 842.239,1420.24 855.403,1420.24C868.567,1420.24 879.254,1409.56 879.254,1396.39L879.254,1339.52C879.254,1326.36 868.567,1315.67 855.403,1315.67C842.239,1315.67 831.551,1326.36 831.551,1339.52L831.551,1396.39ZM1068.78,1356.38C1063.63,1365.28 1052.23,1368.34 1043.33,1363.2C1034.43,1358.06 1031.37,1346.66 1036.51,1337.75C1041.65,1328.85 1053.05,1325.8 1061.96,1330.93C1070.86,1336.08 1073.91,1347.48 1068.78,1356.38ZM653.454,1362.98C643.174,1362.98 634.827,1354.63 634.827,1344.35C634.827,1334.07 643.174,1325.72 653.454,1325.72C663.735,1325.72 672.081,1334.07 672.081,1344.35C672.081,1354.63 663.735,1362.98 653.454,1362.98ZM892.794,1216.69C897.436,1212.16 901.437,1206.69 904.8,1200.3C904.5,1199.4 904.351,1198.8 904.351,1198.5C904.126,1197.45 904.014,1196.4 904.014,1195.36C904.014,1192.59 904.837,1190.3 906.484,1188.51C907.906,1186.94 909.515,1186.15 911.311,1186.15C913.407,1186.15 914.53,1187.2 914.679,1189.29C914.904,1192.29 912.92,1196.25 908.729,1201.19C908.579,1203.51 909.777,1204.67 912.322,1204.67C913.22,1204.67 914.361,1204.47 915.746,1204.06C917.13,1203.64 918.122,1203.44 918.721,1203.44C920.966,1203.44 922.089,1204.56 922.089,1206.81C922.089,1207.7 921.789,1208.64 921.191,1209.61C920.367,1210.89 919.282,1213.02 917.935,1216.01C916.363,1219.46 915.428,1221.93 915.128,1223.42C914.904,1224.47 914.792,1225.41 914.792,1226.23C914.792,1229.3 916.251,1230.83 919.17,1230.83C922.762,1230.83 927.328,1229.22 932.866,1226.01C937.656,1223.31 941.548,1220.43 944.542,1217.36C945.034,1216.87 945.466,1216.56 945.839,1216.43C947.157,1213.24 948.975,1209.54 951.278,1205.35C951.652,1204.67 952.382,1204.02 953.467,1203.38C954.552,1202.75 955.469,1202.43 956.218,1202.43C956.817,1202.43 957.116,1202.65 957.116,1203.1C957.116,1203.33 957.041,1203.59 956.891,1203.89C955.32,1206.73 952.962,1211.49 949.819,1218.15C948.771,1220.84 948.247,1223.09 948.247,1224.88C948.247,1226.45 948.733,1227.24 949.706,1227.24C950.829,1227.24 952.663,1225.97 955.207,1223.42C958.501,1220.13 963.178,1212.8 969.241,1201.42C969.69,1200.22 970.738,1199.62 972.384,1199.62C974.031,1199.62 974.854,1200.22 974.854,1201.42C975.004,1206.58 973.544,1215.53 970.476,1228.25C973.245,1227.8 975.715,1227.73 977.885,1228.03C983.498,1228.7 986.305,1230.57 986.305,1233.64C986.305,1235.51 985.182,1237.49 982.937,1239.59C982.638,1239.89 982.338,1240.04 982.039,1240.04C981.59,1240.04 981.365,1239.85 981.365,1239.48C981.365,1239.18 981.515,1238.88 981.814,1238.58C983.386,1237.08 984.172,1235.73 984.172,1234.54C984.172,1232.07 981.702,1230.83 976.763,1230.83C975.116,1230.91 972.721,1231.17 969.577,1231.62C965.162,1248.31 957.864,1261.78 947.686,1272.03C942.072,1277.72 935.673,1282.33 928.488,1285.84C920.629,1289.73 913.033,1291.68 905.698,1291.68C900.159,1291.68 895.725,1290.26 892.394,1287.41C889.064,1284.57 887.399,1280.94 887.399,1276.52C887.399,1271.36 890.018,1266.01 895.257,1260.47C901.02,1254.41 909.421,1248.91 920.461,1243.97C931.5,1239.03 945.852,1234.31 963.515,1229.82C964.713,1224.88 966.322,1217.51 968.343,1207.7C963.029,1217.81 957.415,1224.99 951.503,1229.26C949.706,1230.61 948.097,1231.28 946.675,1231.28C944.28,1231.28 943.083,1229.75 943.083,1226.68C943.083,1224.94 943.535,1222.74 944.454,1220.06L945.665,1219.04C946.488,1218.3 946.9,1217.62 946.9,1217.02C946.9,1216.57 946.675,1216.35 946.226,1216.35C946.105,1216.35 945.976,1216.37 945.839,1216.43L945.131,1218.15L944.454,1220.06C936.813,1226.53 930.179,1230.79 924.559,1232.85C921.565,1233.98 918.983,1234.54 916.812,1234.54C911.573,1234.54 908.879,1231.69 908.729,1226.01C908.654,1221.81 910.413,1216.5 914.006,1210.06C912.135,1210.29 910.394,1209.69 908.785,1208.27C907.176,1206.85 906.409,1205.16 906.484,1203.21C903.548,1208.73 899.105,1214 893.146,1219.03C884.581,1228.01 877.31,1232.21 871.344,1231.62C869.773,1231.47 868.313,1230.61 866.966,1229.04C865.394,1227.24 864.608,1224.96 864.608,1222.19C864.608,1220.84 864.796,1219.42 865.17,1217.92C859.781,1224.36 855.552,1228.33 852.484,1229.82C850.762,1230.64 849.191,1231.06 847.769,1231.06C844.326,1231.06 842.604,1229.11 842.604,1225.22C842.604,1221.03 844.7,1215.15 848.891,1207.59C849.64,1206.25 851.211,1205.57 853.606,1205.57C855.028,1205.57 855.552,1206.1 855.178,1207.14C853.906,1209.46 852.671,1211.78 851.473,1214.1C849.303,1218.37 848.218,1221.66 848.218,1223.98C848.218,1226.75 848.891,1228.14 850.238,1228.14C853.307,1228.14 857.049,1225.18 861.465,1219.27C865.282,1214.1 868.276,1208.72 870.446,1203.1C871.195,1202.05 872.654,1201.53 874.825,1201.53C875.947,1201.53 876.509,1201.83 876.509,1202.43C876.509,1202.65 876.434,1202.88 876.284,1203.1C871.943,1211.71 869.773,1218.41 869.773,1223.2C869.773,1226.94 871.27,1228.81 874.263,1228.81C878.54,1228.81 883.833,1225.64 890.131,1219.29L890.879,1218.48L891.252,1218.13L892.114,1217.25L892.794,1216.69ZM962.841,1232.96C954.758,1235.21 948.584,1237.01 944.318,1238.35C935.411,1241.12 927.74,1243.97 921.303,1246.89C912.172,1251 905.174,1255.9 900.309,1261.59C896.118,1266.53 894.022,1271.36 894.022,1276.08C894.022,1280.04 895.407,1283.15 898.176,1285.39C900.945,1287.64 904.613,1288.76 909.178,1288.76C918.833,1288.76 928.488,1284.42 938.143,1275.74C949.519,1265.41 957.752,1251.15 962.841,1232.96ZM813.415,1216.12C813.565,1217.62 813.864,1220.09 814.313,1223.54C814.837,1227.35 816.558,1229.26 819.477,1229.26C823.744,1229.26 829.581,1225.29 836.991,1217.36C837.665,1216.69 838.188,1216.35 838.563,1216.35C838.937,1216.35 839.124,1216.61 839.124,1217.14C839.124,1217.73 838.899,1218.26 838.45,1218.71C835.831,1221.48 832.65,1224.13 828.908,1226.68C823.893,1230.12 819.739,1231.84 816.446,1231.84C813.003,1231.84 810.758,1229.86 809.71,1225.89C809.336,1224.25 809.074,1222.15 808.924,1219.61C806.978,1221.1 803.76,1224.25 799.269,1229.04C796.126,1232.4 792.983,1235.73 789.839,1239.03C789.54,1239.33 789.278,1239.48 789.053,1239.48C788.679,1239.48 788.492,1239.29 788.492,1238.91C788.492,1237.72 794.442,1231.02 806.342,1218.82L808.7,1216.35C808.85,1215.15 808.775,1213.39 808.475,1211.07C808.176,1208.75 807.839,1207.78 807.465,1208.15C806.417,1208.9 805.669,1209.28 805.22,1209.28C804.995,1209.28 804.883,1209.2 804.883,1209.05C804.883,1208.45 805.856,1207.42 807.802,1205.96C809.748,1204.51 811.02,1203.78 811.619,1203.78C812.442,1203.78 813.041,1204.73 813.415,1206.64C813.789,1208.55 813.864,1210.51 813.64,1212.53C815.511,1211.11 818.467,1208.87 822.509,1205.8C828.795,1201.16 832.238,1198.84 832.837,1198.84C833.885,1198.84 833.735,1199.66 832.388,1201.31C830.517,1202.65 827.299,1205.03 822.733,1208.43C818.168,1211.84 815.062,1214.4 813.415,1216.12ZM752.865,1220.34C745.199,1228.07 738.544,1231.83 732.92,1231.62C727.307,1231.47 724.5,1228.1 724.5,1221.51C724.5,1218.15 725.361,1213.39 727.082,1207.26C729.402,1199.02 733.743,1189.07 740.105,1177.39C748.263,1162.28 755.261,1154.6 761.099,1154.38C764.542,1154.3 766.263,1156.21 766.263,1160.1C766.263,1161.75 765.889,1163.62 765.14,1165.72C761.698,1176.5 751.706,1188.96 735.165,1203.1C731.648,1209.46 729.889,1215.75 729.889,1221.96C729.889,1229.6 734.005,1231.06 742.238,1226.34C745.531,1224.47 749.086,1221.48 752.903,1217.36C753.395,1216.87 753.821,1216.54 754.188,1216.38C755.2,1213.76 756.61,1210.83 758.405,1207.59C759.153,1206.25 760.725,1205.57 763.12,1205.57C764.542,1205.57 765.066,1206.1 764.691,1207.14C763.419,1209.46 762.184,1211.78 760.987,1214.1C758.816,1218.37 757.731,1221.66 757.731,1223.98C757.731,1226.75 758.405,1228.14 759.752,1228.14C762.82,1228.14 766.563,1225.18 770.978,1219.27C774.795,1214.1 777.789,1208.72 779.96,1203.1C780.708,1202.05 782.168,1201.53 784.338,1201.53C785.461,1201.53 786.022,1201.83 786.022,1202.43C786.022,1202.65 785.947,1202.88 785.797,1203.1C781.457,1211.71 779.286,1218.41 779.286,1223.2C779.286,1226.94 780.783,1228.81 783.777,1228.81C788.492,1228.81 794.442,1224.96 801.627,1217.25C802.301,1216.57 802.862,1216.24 803.311,1216.24C803.685,1216.24 803.872,1216.5 803.872,1217.02C803.872,1217.62 803.61,1218.15 803.087,1218.6C794.33,1227.88 786.92,1232.22 780.858,1231.62C779.286,1231.47 777.827,1230.61 776.479,1229.04C774.908,1227.24 774.122,1224.96 774.122,1222.19C774.122,1220.84 774.309,1219.42 774.683,1217.92C769.294,1224.36 765.066,1228.33 761.997,1229.82C760.276,1230.64 758.704,1231.06 757.282,1231.06C753.839,1231.06 752.118,1229.11 752.118,1225.22C752.118,1223.79 752.362,1222.16 752.865,1220.34L754.7,1218.48C755.149,1218.03 755.373,1217.55 755.373,1217.02C755.373,1216.57 755.149,1216.31 754.7,1216.24C754.545,1216.24 754.373,1216.28 754.188,1216.38C753.63,1217.79 753.186,1219.11 752.865,1220.34ZM1218.38,1201.95C1218.38,1212.23 1210.03,1220.58 1199.75,1220.58C1189.47,1220.58 1181.12,1212.23 1181.12,1201.95C1181.12,1191.67 1189.47,1183.32 1199.75,1183.32C1210.03,1183.32 1218.38,1191.67 1218.38,1201.95ZM893.146,1219.03L892.338,1219.72C891.739,1220.24 891.141,1220.5 890.542,1220.5C890.093,1220.5 889.868,1220.32 889.868,1219.94C889.868,1219.75 889.955,1219.53 890.131,1219.29L891.252,1218.13L892.794,1216.69C893.164,1216.38 893.505,1216.24 893.798,1216.24C894.172,1216.24 894.359,1216.5 894.359,1217.02C894.359,1217.62 894.097,1218.15 893.573,1218.6L893.146,1219.03ZM499.022,1213.37C490.119,1208.23 487.064,1196.83 492.204,1187.93C497.345,1179.02 508.746,1175.97 517.649,1181.11C526.552,1186.25 529.607,1197.65 524.467,1206.55C519.327,1215.46 507.926,1218.51 499.022,1213.37ZM761.548,1165.27C762.371,1163.1 762.783,1161.3 762.783,1159.88C762.783,1158.01 762.147,1157.07 760.874,1157.07C758.779,1157.07 756.496,1159.28 754.026,1163.7C747.44,1175.15 741.602,1187.09 736.513,1199.51C741.377,1194.72 746.055,1189.37 750.546,1183.46C755.86,1176.5 759.527,1170.43 761.548,1165.27ZM885.306,970.449L1029.36,931.851C1040.45,928.879 1051.87,935.471 1054.84,946.562C1057.81,957.653 1051.22,969.07 1040.13,972.042L896.095,1010.63C891.382,1028.7 874.939,1042.05 855.403,1042.05C843.786,1042.05 833.263,1037.33 825.651,1029.71L567.433,1178.79C562.245,1181.79 555.602,1180.01 552.607,1174.82C549.612,1169.63 551.392,1162.99 556.58,1159.99L814.79,1010.92C813.847,1007.44 813.348,1003.78 813.348,1000C813.348,976.79 832.192,957.946 855.403,957.946C867.098,957.946 877.685,962.73 885.306,970.449ZM1502.11,968.314C1502.11,941.205 1480.1,919.197 1452.99,919.197L1431.94,919.197C1441.37,972.864 1441.9,1026.94 1431.94,1081.51L1452.99,1081.51C1480.1,1081.51 1502.11,1059.5 1502.11,1032.39L1502.11,968.314ZM1251.79,1023.85C1264.96,1023.85 1275.64,1013.16 1275.64,1000C1275.64,986.836 1264.96,976.149 1251.79,976.149L1194.92,976.149C1181.76,976.149 1171.07,986.836 1171.07,1000C1171.07,1013.16 1181.76,1023.85 1194.92,1023.85L1251.79,1023.85ZM459.012,976.149C445.848,976.149 435.16,986.836 435.16,1000C435.16,1013.16 445.848,1023.85 459.012,1023.85L515.881,1023.85C529.045,1023.85 539.733,1013.16 539.733,1000C539.733,986.836 529.045,976.149 515.881,976.149L459.012,976.149ZM855.403,980.091C866.391,980.091 875.312,989.012 875.312,1000C875.312,1010.99 866.391,1019.91 855.403,1019.91C844.414,1019.91 835.493,1010.99 835.493,1000C835.493,989.012 844.414,980.091 855.403,980.091ZM868.983,890.157C869.761,889.38 869.761,888.117 868.983,887.34L856.767,875.123C855.989,874.346 854.727,874.346 853.949,875.123L841.733,887.34C840.955,888.117 840.955,889.38 841.733,890.157L853.949,902.374C854.727,903.151 855.989,903.151 856.767,902.374L868.983,890.157ZM846.127,853.877C838.653,840.614 829.083,842.153 817.378,839.089C808.967,836.887 805.294,833.076 797.074,834.033C789.302,834.937 779.323,841.088 779.323,852.305C779.323,857.656 782.812,866.113 794.059,866.175C805.305,866.238 820.882,851.958 846.127,853.877ZM864.589,853.877C872.063,840.614 881.633,842.153 893.338,839.089C901.749,836.887 905.422,833.076 913.642,834.033C921.414,834.937 931.393,841.088 931.393,852.305C931.393,857.656 927.904,866.113 916.657,866.175C905.411,866.238 889.835,851.958 864.589,853.877ZM855.431,730.979C862.927,748.797 879.491,761.451 879.491,785.246C879.491,809.042 860.852,821.411 855.431,838.053C850.011,821.411 831.371,809.042 831.371,785.246C831.371,761.451 847.935,748.797 855.431,730.979ZM890.698,784.516C906.404,779.017 916.657,791.224 916.657,801.883C916.657,821.884 885.561,828.946 872.883,831C884.601,818.203 893.53,797.1 890.698,784.516ZM820.018,784.516C804.312,779.017 794.059,791.224 794.059,801.883C794.059,821.884 825.155,828.946 837.834,831C826.115,818.203 817.186,797.1 820.018,784.516ZM1211.78,786.628C1220.69,791.768 1223.74,803.169 1218.6,812.073C1213.46,820.976 1202.06,824.031 1193.16,818.891C1184.25,813.75 1181.2,802.349 1186.34,793.446C1191.48,784.543 1202.88,781.488 1211.78,786.628ZM492.427,798.052C492.427,787.771 500.773,779.425 511.054,779.425C521.334,779.425 529.681,787.771 529.681,798.052C529.681,808.332 521.334,816.679 511.054,816.679C500.773,816.679 492.427,808.332 492.427,798.052ZM879.254,603.609C879.254,590.445 868.567,579.758 855.403,579.758C842.239,579.758 831.551,590.445 831.551,603.609L831.551,660.479C831.551,673.643 842.239,684.33 855.403,684.33C868.567,684.33 879.254,673.643 879.254,660.479L879.254,603.609ZM1057.35,637.024C1067.63,637.024 1075.98,645.371 1075.98,655.651C1075.98,665.932 1067.63,674.278 1057.35,674.278C1047.07,674.278 1038.72,665.932 1038.72,655.651C1038.72,645.371 1047.07,637.024 1057.35,637.024ZM642.03,643.62C647.171,634.717 658.572,631.662 667.475,636.802C676.378,641.942 679.433,653.344 674.293,662.247C669.153,671.15 657.752,674.205 648.848,669.065C639.945,663.924 636.89,652.523 642.03,643.62Z" style="fill:rgb(229,232,235);"/>
            </g>
        </g>
    </g>
</svg>
