<svg width="24" height="23" viewBox="0 0 24 23" fill="none" xmlns="http://www.w3.org/2000/svg">
<path d="M22.0835 7.01749C20.8708 4.19021 18.8101 2.134 15.9592 0.918112C14.5343 0.31041 13.0541 0 11.4945 0C9.93521 0 8.45341 0.307478 7.03009 0.918112C4.20284 2.13077 2.12032 4.18566 0.905483 7.01749C0.296729 8.43623 0 9.92258 0 11.4819C0 13.0415 0.296729 14.5402 0.905483 15.9592C2.12032 18.791 4.2028 20.8582 7.03009 22.0712C8.45341 22.6818 9.93517 22.989 11.4945 22.989C13.0541 22.989 14.5343 22.6786 15.9592 22.0712C18.8101 20.8553 20.8709 18.7862 22.0835 15.9592C22.6942 14.5356 23.0016 13.0415 23.0016 11.4819C23.0016 9.92258 22.6942 8.44104 22.0835 7.01749ZM7.67131 2.13803C6.67781 3.39552 5.94859 4.99267 5.48311 6.92947H2.47745C3.58412 4.77886 5.44556 3.05587 7.67131 2.13803ZM1.39592 11.4819C1.39592 10.3878 1.57193 9.33153 1.91158 8.3128H5.20649C5.04307 9.38167 4.96745 10.4382 4.96745 11.4819C4.96745 12.5132 5.04311 13.5572 5.20649 14.626H1.88636C1.55934 13.6073 1.39592 12.551 1.39592 11.4819ZM2.47745 16.0094H5.48315C5.94863 17.9837 6.67788 19.6061 7.67135 20.8513C5.40772 19.9079 3.54631 18.185 2.47745 16.0094ZM10.7903 21.4799C9.97275 21.2411 9.2057 20.6374 8.51407 19.6566C7.8224 18.6754 7.29415 17.4557 6.92951 16.0094H10.7903V21.4799ZM10.7903 14.626H6.61504C6.4514 13.5067 6.36338 12.4628 6.36338 11.4819C6.36338 10.4256 6.45136 9.36907 6.64026 8.3128H10.7902V14.626H10.7903ZM10.7903 6.92951H6.92951C7.31933 5.49574 7.85055 4.29056 8.53929 3.32013C9.23388 2.34113 9.97279 1.73557 10.7903 1.50913V6.92951H10.7903ZM20.5242 6.92951H17.5185C17.0533 4.99267 16.3238 3.39552 15.3303 2.13806C17.5563 3.05587 19.4175 4.77885 20.5242 6.92951ZM12.2114 1.50913C13.0289 1.73557 13.7678 2.34113 14.4624 3.32013C15.1514 4.29056 15.6823 5.49574 16.0721 6.92951H12.2114V1.50913ZM12.2114 8.3128H16.3613C16.5502 9.36907 16.6382 10.4256 16.6382 11.4819C16.6382 12.4628 16.5502 13.5067 16.3866 14.626H12.2114V8.3128ZM12.2114 21.4799V16.0094H16.0721C15.6949 17.4557 15.1597 18.6706 14.475 19.6566C13.7887 20.645 13.0415 21.2537 12.2114 21.4799ZM15.3303 20.8513C16.3238 19.6061 17.0533 17.9837 17.5185 16.0094H20.5243C19.4554 18.185 17.5939 19.9079 15.3303 20.8513ZM21.1153 14.626H17.7952C17.9588 13.5571 18.0342 12.5132 18.0342 11.4819C18.0342 10.4382 17.9588 9.3817 17.7952 8.3128H21.0901C21.4297 9.33149 21.6057 10.3878 21.6057 11.4819C21.6057 12.551 21.4423 13.6073 21.1153 14.626Z" fill="white"/>
</svg>
